<svg width="547" height="46" viewBox="0 0 547 46" fill="none" xmlns="http://www.w3.org/2000/svg">
<path d="M547 45.2178H0V0.217773H0.640625V0.518555H109.207V29H217.772V0.518555H328.716V29H434.904V0.518555H546.641V0.217773H547V45.2178Z" fill="#C42936"/>
<rect width="547" height="45" fill="#C42936"/>
<path d="M205.89 33V11.1818H213.262C214.974 11.1818 216.373 11.4908 217.46 12.1087C218.553 12.7195 219.363 13.5469 219.889 14.5909C220.414 15.6349 220.677 16.7997 220.677 18.0852C220.677 19.3707 220.414 20.5391 219.889 21.5902C219.37 22.6413 218.568 23.4794 217.481 24.1044C216.394 24.7223 215.002 25.0312 213.305 25.0312H208.021V22.6875H213.22C214.392 22.6875 215.333 22.4851 216.043 22.0803C216.753 21.6754 217.268 21.1286 217.588 20.4396C217.914 19.7436 218.078 18.9588 218.078 18.0852C218.078 17.2116 217.914 16.4304 217.588 15.7415C217.268 15.0526 216.749 14.5128 216.032 14.1222C215.315 13.7244 214.363 13.5256 213.177 13.5256H208.532V33H205.89ZM243.342 22.0909C243.342 24.392 242.927 26.3807 242.096 28.0568C241.265 29.733 240.125 31.0256 238.676 31.9347C237.227 32.8438 235.572 33.2983 233.711 33.2983C231.851 33.2983 230.196 32.8438 228.747 31.9347C227.298 31.0256 226.158 29.733 225.327 28.0568C224.496 26.3807 224.081 24.392 224.081 22.0909C224.081 19.7898 224.496 17.8011 225.327 16.125C226.158 14.4489 227.298 13.1562 228.747 12.2472C230.196 11.3381 231.851 10.8835 233.711 10.8835C235.572 10.8835 237.227 11.3381 238.676 12.2472C240.125 13.1562 241.265 14.4489 242.096 16.125C242.927 17.8011 243.342 19.7898 243.342 22.0909ZM240.785 22.0909C240.785 20.2017 240.469 18.6072 239.837 17.3075C239.212 16.0078 238.363 15.0241 237.291 14.3565C236.226 13.6889 235.032 13.3551 233.711 13.3551C232.39 13.3551 231.194 13.6889 230.121 14.3565C229.056 15.0241 228.207 16.0078 227.575 17.3075C226.95 18.6072 226.638 20.2017 226.638 22.0909C226.638 23.9801 226.95 25.5746 227.575 26.8743C228.207 28.174 229.056 29.1577 230.121 29.8253C231.194 30.4929 232.39 30.8267 233.711 30.8267C235.032 30.8267 236.226 30.4929 237.291 29.8253C238.363 29.1577 239.212 28.174 239.837 26.8743C240.469 25.5746 240.785 23.9801 240.785 22.0909ZM247.785 33V11.1818H250.427V30.6562H260.569V33H247.785ZM261.759 11.1818H264.785L270.836 21.3665H271.092L277.143 11.1818H280.168L272.285 24.0085V33H269.643V24.0085L261.759 11.1818ZM283.585 11.1818H286.739L294.154 29.2926H294.409L301.824 11.1818H304.977V33H302.506V16.4233H302.293L295.475 33H293.088L286.27 16.4233H286.057V33H283.585V11.1818ZM310.275 33V11.1818H323.442V13.5256H312.917V20.8977H322.761V23.2415H312.917V30.6562H323.613V33H310.275ZM328.205 33V11.1818H335.577C337.281 11.1818 338.68 11.473 339.774 12.0554C340.868 12.6307 341.678 13.4226 342.203 14.4311C342.729 15.4396 342.991 16.5866 342.991 17.8722C342.991 19.1577 342.729 20.2976 342.203 21.2919C341.678 22.2862 340.871 23.0675 339.785 23.6357C338.698 24.1967 337.31 24.4773 335.619 24.4773H329.653V22.0909H335.534C336.699 22.0909 337.636 21.9205 338.347 21.5795C339.064 21.2386 339.582 20.7557 339.902 20.1307C340.229 19.4986 340.392 18.7457 340.392 17.8722C340.392 16.9986 340.229 16.2351 339.902 15.5817C339.575 14.9283 339.053 14.424 338.336 14.0689C337.619 13.7067 336.67 13.5256 335.491 13.5256H330.847V33H328.205ZM338.474 23.1989L343.844 33H340.776L335.491 23.1989H338.474Z" fill="white"/>
</svg>
