<svg width="547" height="100" viewBox="0 0 547 100" fill="none" xmlns="http://www.w3.org/2000/svg">
<rect width="546.641" height="99.8213" fill="#B5B1B1"/>
<path d="M153.332 41.5486C153.119 39.7493 152.255 38.3525 150.739 37.3582C149.224 36.3639 147.366 35.8667 145.164 35.8667C143.554 35.8667 142.146 36.1272 140.938 36.648C139.743 37.1688 138.808 37.885 138.133 38.7964C137.47 39.7079 137.139 40.7436 137.139 41.9037C137.139 42.8743 137.369 43.7088 137.831 44.4072C138.305 45.0938 138.908 45.6679 139.642 46.1295C140.376 46.5793 141.145 46.9522 141.95 47.2481C142.755 47.5322 143.495 47.7631 144.17 47.9406L147.863 48.9349C148.81 49.1835 149.863 49.5268 151.024 49.9648C152.195 50.4027 153.314 51.0005 154.379 51.7581C155.457 52.5038 156.344 53.4626 157.043 54.6345C157.741 55.8064 158.09 57.2446 158.09 58.9491C158.09 60.9141 157.575 62.6897 156.546 64.2758C155.528 65.862 154.036 67.1227 152.071 68.0578C150.118 68.9929 147.745 69.4605 144.951 69.4605C142.347 69.4605 140.092 69.0403 138.186 68.1998C136.292 67.3594 134.801 66.1875 133.712 64.6842C132.635 63.1809 132.025 61.4349 131.883 59.4463H136.428C136.547 60.8194 137.008 61.9558 137.813 62.8554C138.63 63.7432 139.66 64.406 140.903 64.844C142.158 65.2702 143.507 65.4832 144.951 65.4832C146.632 65.4832 148.141 65.211 149.479 64.6665C150.816 64.1101 151.876 63.3407 152.657 62.3582C153.438 61.3639 153.829 60.2039 153.829 58.8781C153.829 57.6707 153.492 56.6882 152.817 55.9307C152.142 55.1731 151.254 54.5576 150.153 54.0841C149.053 53.6106 147.863 53.1963 146.585 52.8412L142.11 51.5628C139.269 50.746 137.02 49.58 135.363 48.0649C133.706 46.5497 132.877 44.567 132.877 42.1167C132.877 40.0808 133.428 38.3052 134.528 36.79C135.641 35.263 137.133 34.0793 139.003 33.2389C140.885 32.3866 142.986 31.9605 145.306 31.9605C147.65 31.9605 149.733 32.3807 151.556 33.2211C153.379 34.0497 154.823 35.1861 155.889 36.6302C156.966 38.0744 157.534 39.7138 157.593 41.5486H153.332ZM189.194 32.4577H193.597V56.5344C193.597 59.0202 193.011 61.2396 191.839 63.1927C190.679 65.134 189.04 66.6669 186.921 67.7915C184.802 68.9041 182.316 69.4605 179.464 69.4605C176.611 69.4605 174.125 68.9041 172.006 67.7915C169.887 66.6669 168.242 65.134 167.07 63.1927C165.91 61.2396 165.33 59.0202 165.33 56.5344V32.4577H169.734V56.1792C169.734 57.9548 170.124 59.5351 170.905 60.92C171.687 62.2931 172.799 63.3762 174.244 64.1693C175.699 64.9506 177.44 65.3412 179.464 65.3412C181.488 65.3412 183.228 64.9506 184.684 64.1693C186.14 63.3762 187.253 62.2931 188.022 60.92C188.803 59.5351 189.194 57.9548 189.194 56.1792V32.4577ZM202.391 68.8213V32.4577H215.104C217.637 32.4577 219.726 32.8956 221.372 33.7716C223.017 34.6357 224.242 35.8016 225.047 37.2694C225.852 38.7254 226.254 40.3412 226.254 42.1167C226.254 43.6792 225.976 44.9695 225.42 45.9875C224.875 47.0055 224.153 47.8104 223.254 48.4023C222.366 48.9941 221.401 49.4321 220.359 49.7162V50.0713C221.472 50.1423 222.591 50.5329 223.715 51.2432C224.84 51.9534 225.781 52.9714 226.538 54.2971C227.296 55.6229 227.675 57.2446 227.675 59.1622C227.675 60.9851 227.261 62.6246 226.432 64.0805C225.603 65.5365 224.295 66.6906 222.508 67.5429C220.72 68.3952 218.395 68.8213 215.53 68.8213H202.391ZM206.794 64.915H215.53C218.406 64.915 220.448 64.3587 221.656 63.246C222.875 62.1215 223.484 60.7602 223.484 59.1622C223.484 57.9311 223.171 56.7948 222.543 55.7531C221.916 54.6996 221.022 53.8592 219.862 53.2318C218.702 52.5926 217.329 52.273 215.743 52.273H206.794V64.915ZM206.794 48.4378H214.962C216.287 48.4378 217.483 48.1773 218.548 47.6565C219.626 47.1357 220.478 46.4018 221.105 45.4548C221.744 44.5078 222.064 43.3952 222.064 42.1167C222.064 40.5187 221.508 39.1634 220.395 38.0507C219.282 36.9262 217.519 36.3639 215.104 36.3639H206.794V48.4378ZM254.797 41.5486C254.584 39.7493 253.719 38.3525 252.204 37.3582C250.689 36.3639 248.831 35.8667 246.629 35.8667C245.019 35.8667 243.611 36.1272 242.403 36.648C241.208 37.1688 240.272 37.885 239.598 38.7964C238.935 39.7079 238.603 40.7436 238.603 41.9037C238.603 42.8743 238.834 43.7088 239.296 44.4072C239.769 45.0938 240.373 45.6679 241.107 46.1295C241.841 46.5793 242.61 46.9522 243.415 47.2481C244.22 47.5322 244.96 47.7631 245.635 47.9406L249.328 48.9349C250.275 49.1835 251.328 49.5268 252.488 49.9648C253.66 50.4027 254.779 51.0005 255.844 51.7581C256.921 52.5038 257.809 53.4626 258.508 54.6345C259.206 55.8064 259.555 57.2446 259.555 58.9491C259.555 60.9141 259.04 62.6897 258.01 64.2758C256.992 65.862 255.501 67.1227 253.536 68.0578C251.583 68.9929 249.209 69.4605 246.416 69.4605C243.812 69.4605 241.557 69.0403 239.651 68.1998C237.757 67.3594 236.266 66.1875 235.177 64.6842C234.099 63.1809 233.49 61.4349 233.348 59.4463H237.893C238.012 60.8194 238.473 61.9558 239.278 62.8554C240.095 63.7432 241.125 64.406 242.368 64.844C243.622 65.2702 244.972 65.4832 246.416 65.4832C248.097 65.4832 249.606 65.211 250.944 64.6665C252.281 64.1101 253.341 63.3407 254.122 62.3582C254.903 61.3639 255.294 60.2039 255.294 58.8781C255.294 57.6707 254.956 56.6882 254.282 55.9307C253.607 55.1731 252.719 54.5576 251.618 54.0841C250.517 53.6106 249.328 53.1963 248.049 52.8412L243.575 51.5628C240.734 50.746 238.485 49.58 236.828 48.0649C235.171 46.5497 234.342 44.567 234.342 42.1167C234.342 40.0808 234.892 38.3052 235.993 36.79C237.106 35.263 238.598 34.0793 240.468 33.2389C242.35 32.3866 244.451 31.9605 246.771 31.9605C249.115 31.9605 251.198 32.3807 253.021 33.2211C254.844 34.0497 256.288 35.1861 257.353 36.6302C258.431 38.0744 258.999 39.7138 259.058 41.5486H254.797ZM264.806 36.3639V32.4577H292.079V36.3639H280.644V68.8213H276.241V36.3639H264.806ZM298.875 68.8213V32.4577H311.162C314.003 32.4577 316.335 32.943 318.158 33.9136C319.981 34.8724 321.33 36.1923 322.206 37.8731C323.082 39.554 323.52 41.4657 323.52 43.6082C323.52 45.7507 323.082 47.6506 322.206 49.3078C321.33 50.965 319.987 52.2671 318.176 53.214C316.364 54.1492 314.05 54.6167 311.233 54.6167H301.29V50.6395H311.091C313.032 50.6395 314.595 50.3554 315.778 49.7872C316.974 49.219 317.838 48.4141 318.371 47.3724C318.915 46.3189 319.188 45.0642 319.188 43.6082C319.188 42.1523 318.915 40.8798 318.371 39.7907C317.826 38.7017 316.956 37.8613 315.761 37.2694C314.565 36.6657 312.985 36.3639 311.02 36.3639H303.278V68.8213H298.875ZM315.992 52.4861L324.94 68.8213H319.827L311.02 52.4861H315.992ZM332.349 68.8213H327.733L341.085 32.4577H345.63L358.983 68.8213H354.366L343.5 38.2105H343.215L332.349 68.8213ZM334.054 54.6167H352.661V58.523H334.054V54.6167ZM358.41 36.3639V32.4577H385.683V36.3639H374.248V68.8213H369.845V36.3639H358.41ZM392.479 68.8213V32.4577H414.425V36.3639H396.882V48.6508H413.288V52.5571H396.882V64.915H414.709V68.8213H392.479Z" fill="white"/>
</svg>
