<svg width="181" height="28" viewBox="0 0 181 28" fill="none" xmlns="http://www.w3.org/2000/svg">
<g clip-path="url(#clip0_2001_1352)">
<path d="M19.1103 27.3073L28.719 11.6348H10.3751L7.23047 15.9883H19.9838L13.8692 27.3073H19.1103Z" fill="#DDDDDD"/>
<path d="M32.2076 27.3061L47.9314 0.314453H16.4839L13.8633 5.19037H39.196L26.9664 27.3061H32.2076Z" fill="#DDDDDD"/>
<path d="M0.761719 27.3066H6.35223L9.23484 22.9531H3.55698L0.761719 27.3066Z" fill="#DDDDDD"/>
<path d="M72.3896 8.24512V19.5642H70.2932V8.24512H72.3896Z" fill="#333333"/>
<path d="M95.9755 15.1229V19.9988H93.8792V8.67969H95.9755V13.5556H101.566V8.67969H103.663V19.9988H101.566V15.1229H95.9755Z" fill="#333333"/>
<path d="M114.316 19.4766H112.22V9.89894H108.551V7.9834H118.16V9.89894H114.491L114.316 19.4766Z" fill="#333333"/>
<path d="M137.038 15.1229V19.9988H134.942V8.67969H137.038V13.5556H142.629V8.67969H144.725V19.9988H142.629V15.1229H137.038Z" fill="#333333"/>
<path d="M152.757 8.24512V19.5642H150.661V8.24512H152.757Z" fill="#333333"/>
<path d="M166.738 9.89898H160.099V13.1206H164.904L163.856 15.0361H160.187V19.8249H158.09V8.50586H167.699L166.651 10.4214L166.738 9.89898Z" fill="#333333"/>
<path d="M176.34 19.4766H174.243V9.89894H170.575V7.9834H180.183V9.89894H176.515L176.34 19.4766Z" fill="#333333"/>
<path d="M64.5267 19.4772L65.4003 17.7358H58.4121L64.5267 8.24512H61.9062L54.918 19.4772H64.5267Z" fill="#333333"/>
<path d="M126.547 13.3782C124.276 12.847 123.752 12.4204 123.752 11.5497C123.752 10.7661 124.451 10.1566 125.674 10.1566C126.722 10.1566 127.77 10.5745 128.818 11.3756L129.779 9.72125C128.644 8.85055 127.334 8.32812 125.674 8.32812C123.315 8.32812 121.656 9.72125 121.656 11.7238C121.656 13.9006 123.053 14.5972 125.586 15.2066C127.77 15.7029 128.207 16.1644 128.207 17.0351C128.207 17.9058 127.403 18.5153 126.111 18.5153C124.626 18.5153 123.49 17.9668 122.442 17.0351L121.481 18.6894C122.879 19.8213 124.451 20.3438 126.111 20.3438C128.556 20.3438 130.303 19.0377 130.303 16.861C130.303 14.9454 128.993 13.9877 126.547 13.3782Z" fill="#333333"/>
<path d="M84.6166 15.1231H87.0625V17.2999C86.3462 17.831 85.3155 18.1706 84.2672 18.1706C81.9087 18.1706 80.2491 16.4292 80.2491 13.9912C80.2491 11.7274 81.9087 9.81187 84.0925 9.81187C85.4028 9.81187 86.2763 10.195 87.0625 10.8567L88.1107 9.11531C87.0625 8.37522 85.9269 7.9834 84.1799 7.9834C80.6858 7.9834 78.1526 10.7696 78.1526 14.0783C78.1526 17.3869 80.5985 20.0861 84.2672 20.0861C86.3637 20.0861 88.0234 19.2502 89.1589 18.2576V13.3817H85.7522L84.704 15.1231H84.6166Z" fill="#333333"/>
</g>
<defs>
<clipPath id="clip0_2001_1352">
<rect width="180" height="27" fill="white" transform="translate(0.761719 0.316406)"/>
</clipPath>
</defs>
</svg>
