<svg width="117" height="19" viewBox="0 0 117 19" fill="none" xmlns="http://www.w3.org/2000/svg">
<g clip-path="url(#clip0_2001_1367)">
<path d="M115.932 5.61035C115.932 5.87451 115.859 6.0647 115.701 6.17036C115.859 6.05414 115.932 5.87451 115.932 5.61035Z" fill="black"/>
<path d="M46.7478 5.96338C46.7898 6.05848 46.8632 6.13244 46.9472 6.19584C46.8527 6.14301 46.7898 6.05848 46.7478 5.96338Z" fill="black"/>
<path d="M39.4973 5.60596C39.4973 5.74332 39.5183 5.85955 39.5603 5.96521C39.5183 5.87012 39.4973 5.75389 39.4973 5.60596Z" fill="black"/>
<path d="M43.9766 6.18168C44.0606 6.12885 44.134 6.04432 44.176 5.94922C44.134 6.04432 44.071 6.11828 43.9766 6.18168Z" fill="black"/>
<path d="M39.7599 6.18168C39.6759 6.12885 39.613 6.04432 39.571 5.94922C39.613 6.04432 39.6759 6.11828 39.7599 6.18168Z" fill="black"/>
<path d="M111.048 17.6886C111.006 17.5935 110.933 17.509 110.849 17.4561C110.943 17.509 111.006 17.5829 111.048 17.6886Z" fill="black"/>
<path d="M104.397 5.96338C104.439 6.05848 104.502 6.13244 104.586 6.19584C104.502 6.14301 104.439 6.05848 104.397 5.96338Z" fill="black"/>
<path d="M112.004 4.91943C111.867 4.95113 111.773 4.98283 111.71 5.04623C111.773 4.9934 111.878 4.95113 112.004 4.91943Z" fill="black"/>
<path d="M108.806 6.18168C108.89 6.12885 108.963 6.04432 109.005 5.94922C108.963 6.04432 108.9 6.11828 108.806 6.18168Z" fill="black"/>
<path d="M111.574 5.96338C111.616 6.05848 111.689 6.13244 111.773 6.19584C111.679 6.14301 111.616 6.05848 111.574 5.96338Z" fill="black"/>
<path d="M51.0905 5.61035C51.0905 5.87451 51.017 6.0647 50.8596 6.17036C51.017 6.05414 51.0905 5.87451 51.0905 5.61035Z" fill="black"/>
<path d="M104.601 18.056C104.601 17.8658 104.654 17.7284 104.728 17.6016C104.654 17.7179 104.601 17.8658 104.601 18.056Z" fill="black"/>
<path d="M27.9414 17.3032C27.5321 17.3032 27.1963 17.6413 27.1963 18.0534C27.1963 18.4655 27.5321 18.8036 27.9414 18.8036H38.7086C38.6351 18.5923 38.5826 18.3598 38.5826 18.064C38.5826 17.7681 38.6456 17.5145 38.7295 17.3032H27.9414Z" fill="black"/>
<path d="M47.3523 17.3032C47.4362 17.5145 47.4992 17.7576 47.4992 18.064C47.4992 18.3704 47.4362 18.5923 47.3628 18.8036H103.541C103.467 18.5923 103.415 18.3598 103.415 18.064C103.415 17.7681 103.478 17.5145 103.562 17.3032H47.3523Z" fill="black"/>
<path d="M11.8857 4.86719H8.65344C8.25466 4.86719 7.9923 4.92002 7.85587 5.02568C7.71945 5.13135 7.65648 5.32154 7.65648 5.59627C7.65648 5.88156 7.75093 6.08232 7.93983 6.18798C8.12872 6.29364 8.49603 6.34647 9.03124 6.34647H9.66089L6.63853 13.1723L3.91001 6.34647H4.2983C4.77055 6.34647 5.08538 6.29364 5.26378 6.17741C5.44218 6.06118 5.52614 5.87099 5.52614 5.59627C5.52614 5.32154 5.46317 5.13135 5.32674 5.02568C5.19032 4.92002 4.92796 4.86719 4.52918 4.86719H1.60126C1.31792 4.86719 1.11852 4.93059 0.971605 5.04682C0.835179 5.17361 0.761719 5.35324 0.761719 5.59627C0.761719 5.87099 0.845673 6.07175 1.01358 6.17741C1.18149 6.29364 1.49632 6.34647 1.95807 6.34647L5.4002 14.0388C5.57861 14.4297 5.74652 14.6833 5.90393 14.7995C6.07184 14.9158 6.30272 14.9686 6.59656 14.9686C6.92188 14.9686 7.17374 14.9158 7.34165 14.7995C7.50956 14.6833 7.68796 14.4297 7.85587 14.0493L11.3085 6.35704H11.4974C11.9591 6.35704 12.274 6.30421 12.4419 6.18798C12.6098 6.07175 12.6937 5.88156 12.6937 5.60683C12.6937 5.36381 12.6203 5.18418 12.4838 5.05738C12.3474 4.93059 12.1375 4.87776 11.8542 4.87776L11.8857 4.86719Z" fill="black"/>
<path d="M23.2614 10.1981C23.9856 10.1981 24.4368 10.1347 24.5942 9.99735C24.7621 9.85999 24.8356 9.59583 24.8356 9.20488C24.8356 7.92635 24.3529 6.83802 23.3769 5.93989C22.4114 5.04175 21.1836 4.5874 19.7144 4.5874C18.0878 4.5874 16.776 5.07345 15.758 6.03498C14.7506 6.99652 14.2363 8.25391 14.2363 9.80716C14.2363 11.3604 14.7191 12.5544 15.6741 13.4737C16.629 14.3929 17.8989 14.8579 19.494 14.8579C20.2286 14.8579 20.9632 14.7628 21.7083 14.5831C22.4534 14.4035 23.167 14.1393 23.8701 13.8012C24.1954 13.6427 24.4263 13.4737 24.5732 13.3046C24.7202 13.1355 24.7936 12.9559 24.7936 12.7446C24.7936 12.5333 24.7202 12.3853 24.5837 12.248C24.4473 12.1106 24.2689 12.0472 24.059 12.0472C23.8491 12.0472 23.2719 12.2691 22.317 12.7023C21.3515 13.1461 20.47 13.3574 19.6514 13.3574C18.5705 13.3574 17.7205 13.0827 17.0908 12.5227C16.4716 11.9733 16.1253 11.1808 16.0728 10.1664H23.2614V10.1981ZM16.1253 8.81393C16.3247 7.94749 16.7445 7.26068 17.3846 6.77463C18.0248 6.27801 18.8014 6.03498 19.7249 6.03498C20.5854 6.03498 21.3095 6.28858 21.8972 6.79576C22.4849 7.30294 22.8312 7.97919 22.9361 8.81393H16.1253Z" fill="black"/>
<path d="M28.0131 14.6077H34.8554C35.1808 14.6077 35.4116 14.5549 35.5271 14.4492C35.653 14.3436 35.7055 14.1428 35.7055 13.8575C35.7055 13.6039 35.6425 13.4243 35.5166 13.3081C35.3907 13.1918 35.1913 13.139 34.9184 13.139H31.4448V8.75399C32.1794 7.90868 32.8405 7.29583 33.4492 6.90488C34.0579 6.51393 34.6246 6.32373 35.1703 6.32373C35.4746 6.32373 35.8104 6.4294 36.1882 6.64072C36.566 6.85205 36.8389 6.95771 36.9963 6.95771C37.2272 6.95771 37.437 6.86262 37.6259 6.66186C37.8148 6.4611 37.9093 6.22864 37.9093 5.97504C37.9093 5.57352 37.7204 5.25653 37.3321 5.00294C36.9543 4.74935 36.4506 4.62256 35.8209 4.62256C34.9919 4.62256 34.2153 4.82332 33.5017 5.2354C32.7881 5.64749 32.0954 6.26033 31.4343 7.09507V5.30937C31.4343 5.172 31.3818 5.06634 31.2874 4.99238C31.1929 4.91841 31.046 4.88671 30.8571 4.88671H28.4749C28.1916 4.88671 27.9922 4.95011 27.8557 5.06634C27.7193 5.19314 27.6563 5.37276 27.6563 5.61579C27.6563 5.90108 27.7403 6.10184 27.9082 6.2075C28.0761 6.31317 28.4959 6.366 29.178 6.366H29.8916V13.1284H28.0761C27.7718 13.1284 27.5514 13.1918 27.415 13.3081C27.2681 13.4243 27.2051 13.6145 27.2051 13.8575C27.2051 14.1005 27.2785 14.3013 27.415 14.4281C27.5514 14.5549 27.7613 14.6183 28.0341 14.6183L28.0131 14.6077Z" fill="black"/>
<path d="M58.6233 14.8739C59.3579 14.8739 60.0925 14.7788 60.8376 14.5992C61.5827 14.4196 62.2963 14.1554 62.9994 13.8173C63.3248 13.6588 63.5556 13.4898 63.7025 13.3207C63.8495 13.1516 63.9229 12.972 63.9229 12.7607C63.9229 12.5494 63.8495 12.4014 63.713 12.2641C63.5766 12.1267 63.3982 12.0633 63.1883 12.0633C62.9784 12.0633 62.4013 12.2852 61.4463 12.7184C60.4808 13.1622 59.5993 13.3735 58.7807 13.3735C57.6998 13.3735 56.8498 13.0988 56.2201 12.5388C55.6009 11.9893 55.2546 11.1969 55.2022 10.1825H62.3908C63.1149 10.1825 63.5661 10.1191 63.7235 9.98174C63.8915 9.84438 63.9649 9.58022 63.9649 9.18927C63.9649 7.91074 63.4822 6.82241 62.5062 5.92427C61.5407 5.02614 60.3129 4.57178 58.8437 4.57178C57.2171 4.57178 55.9053 5.05784 54.8873 6.01937C53.8799 6.98091 53.3657 8.2383 53.3657 9.79155C53.3657 11.3448 53.8484 12.5388 54.8034 13.4581C55.7584 14.3773 57.0282 14.8422 58.6233 14.8422V14.8739ZM56.5035 6.78014C57.1436 6.28353 57.9202 6.0405 58.8437 6.0405C59.7042 6.0405 60.4283 6.29409 61.016 6.80128C61.6037 7.30846 61.95 7.98471 62.0549 8.81945H55.2441C55.4435 7.95301 55.8633 7.2662 56.5035 6.78014Z" fill="black"/>
<path d="M70.0468 14.8719C70.7604 14.8719 71.453 14.7345 72.1247 14.4598C72.7963 14.1851 73.426 13.7941 73.9927 13.2658L74.0766 13.9103C74.1186 14.1322 74.2026 14.3119 74.3285 14.4281C74.4544 14.5443 74.6118 14.6077 74.8112 14.6077H76.4588C76.7422 14.6077 76.9521 14.5443 77.0885 14.4175C77.2249 14.2907 77.2984 14.1005 77.2984 13.8469C77.2984 13.5722 77.2144 13.382 77.0465 13.2764C76.8786 13.1707 76.5533 13.1179 76.0496 13.1179H75.5353V8.35247C75.5353 7.12677 75.2205 6.19694 74.5908 5.56296C73.9612 4.93954 73.0377 4.62256 71.8098 4.62256C70.582 4.62256 69.627 4.77048 68.8505 5.05577C68.0844 5.34106 67.6961 5.68975 67.6961 6.11241C67.6961 6.37656 67.7591 6.58789 67.8955 6.74638C68.0319 6.91545 68.1998 6.98941 68.3992 6.98941C68.6196 6.98941 69.0603 6.84148 69.732 6.54563C70.4036 6.24977 71.0123 6.10184 71.5475 6.10184C72.3556 6.10184 72.9537 6.29203 73.3315 6.68299C73.7198 7.07394 73.9087 7.66565 73.9087 8.46869V8.54266C73.4784 8.42643 73.0587 8.35246 72.6389 8.29963C72.2296 8.2468 71.8204 8.22567 71.4111 8.22567C69.8789 8.22567 68.6825 8.53209 67.843 9.14494C66.993 9.75778 66.5732 10.6137 66.5732 11.7231C66.5732 12.6529 66.888 13.4137 67.5282 13.9949C68.1683 14.576 69.0079 14.8719 70.0468 14.8719ZM69.1758 10.1276C69.795 9.75779 70.645 9.57816 71.7154 9.57816C72.0722 9.57816 72.429 9.60986 72.7858 9.66269C73.1426 9.72609 73.5204 9.81062 73.8982 9.93741V11.0786C73.8982 11.5857 73.5204 12.0718 72.7648 12.5367C72.0092 13.0016 71.1907 13.2341 70.2987 13.2341C69.7005 13.2341 69.2073 13.0756 68.819 12.7692C68.4307 12.4628 68.2418 12.0718 68.2418 11.5857C68.2418 10.9729 68.5566 10.4763 69.1758 10.1065V10.1276Z" fill="black"/>
<path d="M79.9879 14.6077H86.8302C87.1555 14.6077 87.3864 14.5549 87.5018 14.4492C87.6278 14.3436 87.6802 14.1428 87.6802 13.8575C87.6802 13.6039 87.6173 13.4243 87.4913 13.3081C87.3654 13.1918 87.166 13.139 86.8932 13.139H83.4195V8.75399C84.1541 7.90868 84.8153 7.29583 85.424 6.90488C86.0326 6.51393 86.5993 6.32373 87.145 6.32373C87.4494 6.32373 87.7852 6.4294 88.163 6.64072C88.5408 6.85205 88.8136 6.95771 88.971 6.95771C89.2019 6.95771 89.4118 6.86262 89.6007 6.66186C89.7896 6.4611 89.884 6.22864 89.884 5.97504C89.884 5.57352 89.6951 5.25653 89.3069 5.00294C88.9291 4.74935 88.4253 4.62256 87.7957 4.62256C86.9666 4.62256 86.19 4.82332 85.4764 5.2354C84.7628 5.64749 84.0702 6.26033 83.409 7.09507V5.30937C83.409 5.172 83.3566 5.06634 83.2621 4.99238C83.1677 4.91841 83.0208 4.88671 82.8319 4.88671H80.4497C80.1663 4.88671 79.9669 4.95011 79.8305 5.06634C79.6941 5.19314 79.6311 5.37276 79.6311 5.61579C79.6311 5.90108 79.7151 6.10184 79.883 6.2075C80.0509 6.31317 80.4706 6.366 81.1528 6.366H81.8664V13.1284H80.0509C79.7465 13.1284 79.5262 13.1918 79.3897 13.3081C79.2428 13.4243 79.1799 13.6145 79.1799 13.8575C79.1799 14.1005 79.2533 14.3013 79.3897 14.4281C79.5262 14.5549 79.736 14.6183 80.0089 14.6183L79.9879 14.6077Z" fill="black"/>
<path d="M93.6594 14.6054H101.383C101.709 14.6054 101.94 14.5526 102.055 14.4469C102.171 14.3413 102.234 14.1405 102.234 13.8552C102.234 13.6016 102.171 13.422 102.055 13.3058C101.929 13.1896 101.74 13.1367 101.478 13.1367H98.1929V1.24963C98.1929 1.11226 98.1404 1.0066 98.0355 0.932635C97.9306 0.858672 97.7836 0.816406 97.5947 0.816406H94.1421C93.8693 0.816406 93.6594 0.879804 93.5229 1.0066C93.376 1.1334 93.3131 1.32359 93.3131 1.57718C93.3131 1.86248 93.397 2.06324 93.5649 2.1689C93.7328 2.27456 94.1631 2.32739 94.8347 2.32739H96.6083V13.1156H93.7118C93.418 13.1156 93.1976 13.179 93.0507 13.2952C92.9038 13.4114 92.8303 13.6016 92.8303 13.8447C92.8303 14.0877 92.9038 14.2885 93.0402 14.4152C93.1871 14.542 93.3865 14.6054 93.6594 14.6054Z" fill="black"/>
<path d="M113.234 17.291C112.825 17.291 112.489 17.6291 112.489 18.0412C112.489 18.4533 112.825 18.7914 113.234 18.7914C113.644 18.7914 113.979 18.4533 113.979 18.0412C113.979 17.6291 113.644 17.291 113.234 17.291Z" fill="black"/>
<path d="M50.8941 5.04632C50.7577 4.91953 50.5478 4.8667 50.2644 4.8667H47.6828C47.2841 4.8667 47.0217 4.91953 46.8853 5.02519C46.7489 5.13085 46.6859 5.32105 46.6859 5.59577C46.6859 5.73313 46.7069 5.84936 46.7489 5.95503C46.7908 6.05012 46.8643 6.12409 46.9482 6.18749C47.0427 6.24032 47.1686 6.28258 47.3365 6.31428C47.5044 6.34598 47.7038 6.35655 47.9452 6.35655H48.3545L45.4685 12.168L42.6351 6.35655H43.0234C43.2543 6.35655 43.4536 6.34598 43.6111 6.31428C43.7685 6.28258 43.8944 6.24032 43.9784 6.18749C44.0623 6.13465 44.1358 6.05012 44.1778 5.95503C44.2197 5.85993 44.2407 5.7437 44.2407 5.59577C44.2407 5.32105 44.1778 5.13085 44.0413 5.02519C43.9049 4.91953 43.653 4.8667 43.2543 4.8667H40.3368C40.0535 4.8667 39.8541 4.93009 39.7072 5.04632C39.5708 5.17312 39.4973 5.35275 39.4973 5.59577C39.4973 5.73313 39.5183 5.84936 39.5603 5.95503C39.6022 6.05012 39.6652 6.12409 39.7492 6.18749C39.9171 6.30371 40.2319 6.35655 40.6936 6.35655L44.5346 13.9326L42.845 17.2927H40.5782C40.3054 17.2927 40.106 17.3561 39.9695 17.4829C39.9381 17.5146 39.9171 17.5569 39.8961 17.5991C39.8226 17.7153 39.7701 17.8633 39.7701 18.0535C39.7701 18.3282 39.8331 18.5184 39.959 18.6346C40.022 18.6875 40.1165 18.7297 40.2319 18.7614C40.3263 18.7825 40.4523 18.7931 40.5887 18.7931H45.5315C45.7729 18.7931 45.9723 18.7297 46.1087 18.6135C46.1822 18.5501 46.2346 18.4761 46.2661 18.381C46.2976 18.2859 46.3186 18.1803 46.3186 18.0535C46.3186 17.9055 46.2976 17.7893 46.2556 17.6836C46.2136 17.5886 46.1402 17.504 46.0562 17.4512C46.0143 17.4195 45.9513 17.3984 45.8883 17.3772C45.6889 17.3138 45.4056 17.2821 45.0173 17.2821H44.566L50.0651 6.33541C50.4533 6.32485 50.7262 6.26145 50.8836 6.14522C51.041 6.02899 51.1145 5.84936 51.1145 5.58521C51.1145 5.34218 51.0515 5.16255 50.9151 5.03576L50.8941 5.04632Z" fill="black"/>
<path d="M44.178 5.96374C44.22 5.86865 44.241 5.75242 44.241 5.60449C44.241 5.74185 44.22 5.85808 44.178 5.96374Z" fill="black"/>
<path d="M110.969 18.5282C111.064 18.4119 111.116 18.264 111.116 18.0632C111.116 17.9153 111.095 17.7991 111.053 17.6934C111.095 17.7885 111.116 17.9153 111.116 18.0632C111.116 18.264 111.053 18.4014 110.969 18.5282Z" fill="black"/>
<path d="M115.717 5.04632C115.58 4.91953 115.37 4.8667 115.087 4.8667H112.505C112.306 4.8667 112.138 4.87726 112.012 4.90896C111.886 4.94066 111.781 4.97236 111.718 5.03576C111.655 5.08859 111.603 5.16255 111.571 5.25765C111.54 5.35275 111.519 5.46898 111.519 5.60634C111.519 5.7437 111.54 5.85993 111.582 5.96559C111.624 6.06069 111.697 6.13465 111.781 6.19805C111.876 6.25088 112.002 6.29315 112.169 6.32485C112.337 6.35655 112.537 6.36711 112.778 6.36711H113.187L110.301 12.1786L107.468 6.36711H107.856C108.087 6.36711 108.287 6.35655 108.444 6.32485C108.601 6.29315 108.727 6.25088 108.811 6.19805C108.895 6.14522 108.969 6.06069 109.011 5.96559C109.053 5.8705 109.074 5.75427 109.074 5.60634C109.074 5.33161 109.011 5.14142 108.874 5.03576C108.738 4.93009 108.486 4.87726 108.087 4.87726H105.17C104.886 4.87726 104.687 4.94025 104.54 5.05648C104.404 5.18328 104.33 5.3629 104.33 5.60593C104.33 5.74329 104.351 5.85993 104.393 5.96559C104.435 6.07126 104.498 6.13465 104.582 6.19805C104.666 6.25088 104.792 6.29315 104.949 6.32485C105.107 6.35655 105.296 6.36711 105.527 6.36711L109.367 13.9432L107.678 17.3033H105.411C105.138 17.3033 104.939 17.3667 104.802 17.4935C104.771 17.5252 104.75 17.5674 104.729 17.6097C104.656 17.7259 104.603 17.8738 104.603 18.064C104.603 18.3388 104.666 18.529 104.792 18.6452C104.855 18.698 104.949 18.7403 105.065 18.772C105.159 18.7931 105.285 18.8037 105.411 18.8037C105.432 18.8037 105.453 18.8037 105.474 18.8037H110.28C110.553 18.8037 110.763 18.7403 110.9 18.6135C110.931 18.5923 110.942 18.5501 110.963 18.5184C111.057 18.4022 111.11 18.2542 111.11 18.0535C111.11 17.9055 111.089 17.7893 111.047 17.6836C111.005 17.5886 110.931 17.504 110.847 17.4512C110.805 17.4195 110.742 17.3984 110.679 17.3772C110.616 17.3561 110.532 17.335 110.448 17.3244C110.28 17.2927 110.06 17.2821 109.808 17.2821H109.367L114.866 6.33541C115.255 6.32485 115.528 6.26145 115.685 6.14522C115.842 6.02899 115.916 5.84936 115.916 5.58521C115.916 5.34218 115.842 5.16255 115.706 5.03576L115.717 5.04632Z" fill="black"/>
</g>
<defs>
<clipPath id="clip0_2001_1367">
<rect width="116" height="18" fill="white" transform="translate(0.761719 0.816406)"/>
</clipPath>
</defs>
</svg>
