<svg width="395" height="124" viewBox="0 0 395 124" fill="none" xmlns="http://www.w3.org/2000/svg">
<path d="M333.59 122.53C367.257 122.53 394.55 95.2373 394.55 61.57C394.55 27.9027 367.257 0.610001 333.59 0.610001C299.923 0.610001 272.63 27.9027 272.63 61.57C272.63 95.2373 299.923 122.53 333.59 122.53Z" fill="#E60013"/>
<path d="M333.59 93.05C350.976 93.05 365.07 78.9559 365.07 61.57C365.07 44.1841 350.976 30.09 333.59 30.09C316.204 30.09 302.11 44.1841 302.11 61.57C302.11 78.9559 316.204 93.05 333.59 93.05Z" fill="black"/>
<path d="M51.11 75.66C51.11 77.55 51.78 79.17 53.12 80.51C54.46 81.85 56.08 82.52 57.97 82.52C59.86 82.52 61.48 81.85 62.82 80.51C64.16 79.17 64.83 77.55 64.83 75.66V63.65H69.98V75.66C69.98 78.98 68.81 81.82 66.47 84.16C64.13 86.5 61.3 87.67 57.97 87.67C54.64 87.67 51.81 86.5 49.47 84.16C47.13 81.82 45.96 78.99 45.96 75.66V63.65H51.11V75.66Z" fill="#DCDDDD"/>
<path d="M57.98 88.05C54.57 88.05 51.61 86.83 49.21 84.43C46.81 82.03 45.59 79.08 45.59 75.66V63.27H51.5V75.66C51.5 77.44 52.14 78.98 53.4 80.24C54.66 81.5 56.2 82.14 57.98 82.14C59.76 82.14 61.3 81.5 62.56 80.24C63.82 78.98 64.46 77.44 64.46 75.66V63.27H70.37V75.66C70.37 79.07 69.15 82.02 66.75 84.43C64.35 86.83 61.39 88.05 57.98 88.05ZM46.35 64.03V75.66C46.35 78.86 47.49 81.63 49.75 83.89C52.01 86.15 54.77 87.29 57.98 87.29C61.19 87.29 63.95 86.15 66.21 83.89C68.47 81.63 69.61 78.87 69.61 75.66V64.03H65.23V75.66C65.23 77.65 64.52 79.37 63.11 80.78C61.7 82.19 59.98 82.9 57.99 82.9C56 82.9 54.27 82.19 52.87 80.78C51.46 79.37 50.75 77.65 50.75 75.66V64.03H46.37H46.35Z" fill="#DCDDDD"/>
<path d="M117.01 87.67H111.86V75.66C111.86 72.34 113.03 69.5 115.37 67.16C117.71 64.82 120.54 63.65 123.87 63.65C127.2 63.65 130.03 64.82 132.37 67.16C134.71 69.5 135.88 72.33 135.88 75.66V87.67H130.73V75.66C130.73 73.77 130.06 72.15 128.72 70.81C127.38 69.47 125.76 68.8 123.87 68.8C121.98 68.8 120.36 69.47 119.02 70.81C117.68 72.15 117.01 73.77 117.01 75.66V87.67Z" fill="#DCDDDD"/>
<path d="M136.26 88.05H130.35V75.66C130.35 73.88 129.71 72.34 128.45 71.08C127.19 69.82 125.65 69.18 123.87 69.18C122.09 69.18 120.55 69.82 119.29 71.08C118.03 72.34 117.39 73.88 117.39 75.66V88.05H111.48V75.66C111.48 72.25 112.7 69.3 115.1 66.89C117.5 64.49 120.46 63.27 123.87 63.27C127.28 63.27 130.23 64.49 132.64 66.89C135.05 69.3 136.26 72.25 136.26 75.66V88.05ZM131.12 87.28H135.5V75.65C135.5 72.45 134.36 69.68 132.1 67.42C129.84 65.16 127.08 64.02 123.87 64.02C120.66 64.02 117.9 65.16 115.64 67.42C113.38 69.68 112.24 72.44 112.24 75.65V87.28H116.62V75.65C116.62 73.66 117.33 71.93 118.74 70.53C120.15 69.12 121.87 68.41 123.86 68.41C125.85 68.41 127.58 69.12 128.98 70.53C130.39 71.94 131.1 73.66 131.1 75.65V87.28H131.12Z" fill="#DCDDDD"/>
<path d="M149.95 68.79V75.65C149.95 77.54 150.62 79.16 151.96 80.5C153.3 81.84 154.92 82.51 156.81 82.51V87.66C153.49 87.66 150.65 86.49 148.31 84.15C145.97 81.81 144.8 78.98 144.8 75.65V56.77H149.95V63.63H156.81V68.78H149.95V68.79Z" fill="#DCDDDD"/>
<path d="M157.2 88.05H156.82C153.41 88.05 150.45 86.83 148.05 84.43C145.64 82.03 144.43 79.08 144.43 75.66V56.4H150.34V63.26H157.2V69.17H150.34V75.65C150.34 77.43 150.98 78.97 152.24 80.23C153.52 81.51 155.02 82.13 156.82 82.13H157.2V88.04V88.05ZM145.19 57.16V75.65C145.19 78.85 146.33 81.62 148.59 83.88C150.76 86.05 153.39 87.19 156.44 87.27V82.88C154.61 82.79 153.02 82.08 151.7 80.77C150.29 79.36 149.58 77.64 149.58 75.65V68.4H156.44V64.02H149.58V57.16H145.2H145.19Z" fill="#DCDDDD"/>
<path d="M170.35 75.66C170.35 77.55 171.02 79.17 172.36 80.51C173.7 81.85 175.32 82.52 177.21 82.52C179.1 82.52 180.72 81.85 182.06 80.51C183.4 79.17 184.07 77.55 184.07 75.66V63.65H189.22V75.66C189.22 78.98 188.05 81.82 185.71 84.16C183.37 86.5 180.54 87.67 177.21 87.67C173.88 87.67 171.05 86.5 168.71 84.16C166.37 81.82 165.2 78.99 165.2 75.66V63.65H170.35V75.66Z" fill="#DCDDDD"/>
<path d="M177.22 88.05C173.8 88.05 170.85 86.83 168.45 84.43C166.04 82.03 164.83 79.08 164.83 75.66V63.27H170.74V75.66C170.74 77.44 171.38 78.98 172.64 80.24C173.9 81.5 175.44 82.14 177.22 82.14C179 82.14 180.54 81.5 181.8 80.24C183.06 78.98 183.7 77.44 183.7 75.66V63.27H189.61V75.66C189.61 79.07 188.39 82.02 185.99 84.43C183.59 86.83 180.63 88.05 177.22 88.05ZM165.59 64.03V75.66C165.59 78.86 166.73 81.63 168.99 83.89C171.25 86.15 174.01 87.29 177.22 87.29C180.43 87.29 183.19 86.15 185.45 83.89C187.71 81.63 188.85 78.87 188.85 75.66V64.03H184.47V75.66C184.47 77.65 183.76 79.38 182.35 80.78C180.94 82.19 179.22 82.9 177.23 82.9C175.24 82.9 173.51 82.19 172.11 80.78C170.7 79.37 169.99 77.65 169.99 75.66V64.03H165.61H165.59Z" fill="#DCDDDD"/>
<path d="M216.54 75.66C216.54 73.77 215.87 72.15 214.53 70.81C213.19 69.47 211.57 68.8 209.68 68.8C207.79 68.8 206.17 69.47 204.83 70.81C203.49 72.15 202.82 73.77 202.82 75.66V87.67H197.67V75.66C197.67 72.34 198.84 69.5 201.18 67.16C203.52 64.82 206.35 63.65 209.68 63.65C213.01 63.65 215.84 64.82 218.18 67.16C218.52 67.5 218.83 67.85 219.12 68.21C219.41 67.85 219.72 67.5 220.06 67.16C222.4 64.82 225.23 63.65 228.56 63.65C231.89 63.65 234.72 64.82 237.06 67.16C239.4 69.5 240.57 72.33 240.57 75.66V87.67H235.42V75.66C235.42 73.77 234.75 72.15 233.41 70.81C232.07 69.47 230.45 68.8 228.56 68.8C226.67 68.8 225.05 69.47 223.71 70.81C222.37 72.15 221.7 73.77 221.7 75.66V87.67H216.55V75.66H216.54Z" fill="#DCDDDD"/>
<path d="M240.95 88.05H235.04V75.66C235.04 73.88 234.4 72.34 233.14 71.08C231.88 69.82 230.34 69.18 228.56 69.18C226.78 69.18 225.26 69.8 223.98 71.08C222.72 72.34 222.08 73.88 222.08 75.66V88.05H216.17V75.66C216.17 73.88 215.53 72.34 214.27 71.08C213.01 69.82 211.47 69.18 209.69 69.18C207.91 69.18 206.39 69.8 205.11 71.08C203.85 72.34 203.21 73.88 203.21 75.66V88.05H197.3V75.66C197.3 72.25 198.52 69.29 200.92 66.89C203.32 64.49 206.27 63.27 209.69 63.27C213.11 63.27 216.05 64.49 218.46 66.89C218.69 67.12 218.92 67.36 219.13 67.61C219.34 67.37 219.56 67.13 219.8 66.89C222.2 64.49 225.15 63.27 228.57 63.27C231.99 63.27 234.94 64.49 237.34 66.89C239.75 69.3 240.96 72.25 240.96 75.66V88.05H240.95ZM235.8 87.28H240.18V75.65C240.18 72.45 239.04 69.68 236.78 67.42C234.52 65.16 231.76 64.02 228.55 64.02C225.34 64.02 222.58 65.16 220.32 67.42C219.99 67.75 219.68 68.09 219.41 68.43L219.11 68.8L218.81 68.43C218.53 68.09 218.23 67.74 217.9 67.41C215.64 65.15 212.88 64.01 209.67 64.01C206.46 64.01 203.7 65.15 201.44 67.41C199.18 69.67 198.04 72.43 198.04 75.64V87.27H202.42V75.64C202.42 73.65 203.13 71.92 204.54 70.52C205.95 69.11 207.67 68.4 209.66 68.4C211.65 68.4 213.37 69.11 214.78 70.52C216.19 71.93 216.9 73.65 216.9 75.64V87.27H221.28V75.64C221.28 73.65 221.99 71.93 223.4 70.52C224.81 69.11 226.53 68.4 228.52 68.4C230.51 68.4 232.23 69.11 233.64 70.52C235.05 71.93 235.76 73.65 235.76 75.64V87.27L235.8 87.28Z" fill="#DCDDDD"/>
<path d="M102.9 87.64H97.75V85.52C95.77 86.93 93.48 87.64 90.89 87.64C87.57 87.64 84.73 86.47 82.39 84.13C80.05 81.79 78.88 78.96 78.88 75.63C78.88 72.3 80.05 69.47 82.39 67.13C84.73 64.79 87.56 63.62 90.89 63.62C94.22 63.62 97.05 64.79 99.39 67.13C101.73 69.47 102.9 72.3 102.9 75.63V87.64ZM90.89 68.76C89 68.76 87.38 69.43 86.04 70.77C84.7 72.11 84.03 73.73 84.03 75.62C84.03 77.51 84.7 79.13 86.04 80.47C87.38 81.81 89 82.48 90.89 82.48C92.78 82.48 94.4 81.81 95.74 80.47C97.08 79.13 97.75 77.51 97.75 75.62C97.75 73.73 97.08 72.11 95.74 70.77C94.4 69.43 92.78 68.76 90.89 68.76Z" fill="#DCDDDD"/>
<path d="M103.28 88.02H97.37V86.23C95.47 87.42 93.29 88.02 90.89 88.02C87.48 88.02 84.53 86.8 82.12 84.4C79.71 82 78.5 79.04 78.5 75.63C78.5 72.22 79.72 69.27 82.12 66.86C84.52 64.45 87.47 63.24 90.89 63.24C94.31 63.24 97.25 64.46 99.66 66.86C102.07 69.26 103.28 72.22 103.28 75.63V88.02ZM98.13 87.26H102.51V75.63C102.51 72.43 101.37 69.66 99.11 67.4C96.85 65.14 94.09 64 90.88 64C87.67 64 84.91 65.14 82.65 67.4C80.39 69.66 79.25 72.42 79.25 75.63C79.25 78.84 80.39 81.6 82.65 83.86C84.91 86.12 87.67 87.26 90.88 87.26C93.38 87.26 95.61 86.57 97.52 85.21L98.12 84.78V87.26H98.13ZM90.89 82.87C88.9 82.87 87.17 82.16 85.77 80.75C84.37 79.34 83.65 77.62 83.65 75.63C83.65 73.64 84.36 71.92 85.77 70.51C87.18 69.1 88.9 68.39 90.89 68.39C92.88 68.39 94.6 69.1 96.01 70.51C97.42 71.92 98.13 73.64 98.13 75.63C98.13 77.62 97.42 79.35 96.01 80.75C94.6 82.16 92.88 82.87 90.89 82.87ZM90.89 69.15C89.11 69.15 87.57 69.79 86.31 71.05C85.03 72.33 84.41 73.83 84.41 75.63C84.41 77.43 85.05 78.95 86.31 80.21C87.57 81.47 89.11 82.11 90.89 82.11C92.67 82.11 94.21 81.47 95.47 80.21C96.73 78.95 97.37 77.41 97.37 75.63C97.37 73.85 96.75 72.33 95.47 71.05C94.21 69.79 92.67 69.15 90.89 69.15Z" fill="#DCDDDD"/>
<path d="M261.46 65.23H259.86V98.31H261.46V65.23Z" fill="#DCDDDD"/>
<path d="M261.84 98.69H259.48V64.85H261.84V98.69ZM260.24 97.92H261.08V65.61H260.24V97.92Z" fill="#DCDDDD"/>
<path d="M18.58 87.72C13.65 87.72 9.44 85.98 5.97 82.51C2.5 79.04 0.759995 74.83 0.759995 69.9C0.759995 64.97 2.5 60.77 5.97 57.29C9.44 53.82 13.65 52.08 18.58 52.08C23.51 52.08 27.71 53.82 31.19 57.29C34.66 60.76 36.4 64.97 36.4 69.9C36.4 74.83 34.66 79.04 31.19 82.51C27.72 85.98 23.51 87.72 18.58 87.72ZM27.53 78.84C30 76.37 31.24 73.39 31.24 69.9C31.24 66.41 30.01 63.43 27.53 60.96C25.06 58.49 22.08 57.25 18.59 57.25C15.1 57.25 12.12 58.49 9.64999 60.96C7.17999 63.43 5.94 66.41 5.94 69.9C5.94 73.39 7.16999 76.37 9.64999 78.84C12.12 81.31 15.1 82.55 18.59 82.55C22.08 82.55 25.06 81.32 27.53 78.84Z" fill="#DCDDDD"/>
<path d="M18.58 88.1C13.57 88.1 9.23001 86.31 5.70001 82.78C2.17001 79.25 0.380005 74.92 0.380005 69.9C0.380005 64.88 2.17001 60.55 5.70001 57.02C9.23001 53.49 13.56 51.7 18.58 51.7C23.6 51.7 27.93 53.49 31.46 57.02C34.99 60.55 36.78 64.89 36.78 69.9C36.78 74.91 34.99 79.25 31.46 82.78C27.93 86.31 23.59 88.1 18.58 88.1ZM18.58 52.46C13.78 52.46 9.61999 54.18 6.23999 57.56C2.85999 60.94 1.14001 65.09 1.14001 69.9C1.14001 74.71 2.85999 78.86 6.23999 82.24C9.61999 85.62 13.77 87.34 18.58 87.34C23.39 87.34 27.54 85.62 30.92 82.24C34.3 78.86 36.02 74.71 36.02 69.9C36.02 65.09 34.3 60.95 30.92 57.56C27.54 54.18 23.39 52.46 18.58 52.46ZM18.58 82.93C15 82.93 11.9 81.65 9.37 79.11C6.84 76.58 5.54999 73.48 5.54999 69.9C5.54999 66.32 6.83 63.22 9.37 60.69C11.9 58.16 15 56.87 18.58 56.87C22.16 56.87 25.26 58.15 27.79 60.69C30.32 63.22 31.61 66.32 31.61 69.9C31.61 73.48 30.33 76.58 27.79 79.11C25.26 81.64 22.16 82.93 18.58 82.93ZM18.58 57.63C15.21 57.63 12.29 58.84 9.91 61.22C7.53 63.6 6.32001 66.52 6.32001 69.89C6.32001 73.26 7.53 76.18 9.91 78.56C12.29 80.94 15.21 82.15 18.58 82.15C21.95 82.15 24.87 80.94 27.25 78.56C29.63 76.18 30.84 73.26 30.84 69.89C30.84 66.52 29.63 63.6 27.25 61.22C24.87 58.84 21.95 57.63 18.58 57.63Z" fill="#DCDDDD"/>
<path d="M322.86 56.73V87.37H317.75V56.73H322.86Z" fill="#DCDDDD"/>
<path d="M323.25 87.75H317.38V56.35H323.25V87.75ZM318.14 86.98H322.48V57.11H318.14V86.98Z" fill="#DCDDDD"/>
<path d="M287.47 87.86H282.55V68.23C282.55 65.05 283.67 62.34 285.91 60.1C288.15 57.86 290.86 56.74 294.04 56.74C297.22 56.74 299.93 57.86 302.17 60.1C304.41 62.34 305.53 65.05 305.53 68.23V87.86H300.61V68.23C300.61 66.42 299.97 64.87 298.69 63.59C297.41 62.31 295.86 61.67 294.05 61.67C292.24 61.67 290.69 62.31 289.41 63.59C288.13 64.87 287.49 66.42 287.49 68.23V87.86H287.47Z" fill="#DCDDDD"/>
<path d="M305.89 88.24H300.2V68.23C300.2 66.53 299.59 65.06 298.39 63.86C297.19 62.66 295.72 62.05 294.02 62.05C292.32 62.05 290.87 62.64 289.65 63.86C288.45 65.06 287.84 66.53 287.84 68.23V88.24H282.15V68.23C282.15 64.96 283.32 62.14 285.62 59.83C287.92 57.53 290.75 56.36 294.02 56.36C297.29 56.36 300.11 57.53 302.42 59.83C304.72 62.13 305.89 64.96 305.89 68.23V88.24ZM300.97 87.48H305.13V68.23C305.13 65.17 304.04 62.53 301.88 60.37C299.73 58.22 297.08 57.12 294.02 57.12C290.96 57.12 288.32 58.21 286.16 60.37C284.01 62.52 282.91 65.17 282.91 68.23V87.48H287.07V68.23C287.07 66.32 287.75 64.67 289.1 63.32C290.45 61.97 292.1 61.29 294.01 61.29C295.92 61.29 297.57 61.97 298.92 63.32C300.27 64.67 300.95 66.32 300.95 68.23V87.48H300.97Z" fill="#DCDDDD"/>
<path d="M340.95 68.97V75.83C340.95 77.72 341.62 79.34 342.96 80.68C344.3 82.02 345.92 82.69 347.81 82.69V87.84C344.49 87.84 341.65 86.67 339.31 84.33C336.97 81.99 335.8 79.16 335.8 75.83V56.95H340.95V68.96V68.97Z" fill="#DCDDDD"/>
<path d="M348.19 88.23H347.81C344.4 88.23 341.45 87.01 339.04 84.61C336.63 82.21 335.42 79.26 335.42 75.84V56.58H341.33V75.84C341.33 77.65 341.95 79.14 343.23 80.42C344.49 81.68 346.03 82.32 347.81 82.32H348.19V88.23ZM336.18 57.34V75.83C336.18 79.03 337.32 81.8 339.58 84.06C341.75 86.23 344.38 87.37 347.43 87.45V83.06C345.6 82.97 344.01 82.26 342.69 80.95C341.28 79.54 340.57 77.82 340.57 75.83V57.34H336.19H336.18Z" fill="#DCDDDD"/>
<path d="M25.77 74.49L36.44 81.43V87.3L25.77 80.36V74.49Z" fill="#DCDDDD"/>
<path d="M36.83 88L25.39 80.57V73.79L36.83 81.22V88ZM26.16 80.15L36.07 86.59V81.63L26.16 75.19V80.15Z" fill="#DCDDDD"/>
<path d="M6.79999 119.74V105.55H11.96C13.04 105.55 13.83 105.68 14.34 105.95C14.85 106.21 15.27 106.65 15.6 107.27C15.93 107.88 16.09 108.6 16.09 109.41C16.09 110.48 15.81 111.35 15.25 112.01C14.69 112.67 13.88 113.1 12.82 113.28C13.25 113.54 13.58 113.8 13.81 114.07C14.27 114.61 14.67 115.22 15.02 115.88L17.05 119.74H15.11L13.56 116.79C12.96 115.64 12.51 114.86 12.2 114.46C11.89 114.06 11.6 113.79 11.31 113.65C11.02 113.51 10.62 113.44 10.11 113.44H8.32999V119.74H6.79001H6.79999ZM8.34 111.81H11.65C12.37 111.81 12.92 111.72 13.3 111.55C13.67 111.37 13.97 111.1 14.19 110.73C14.41 110.36 14.52 109.92 14.52 109.42C14.52 108.7 14.31 108.14 13.89 107.73C13.47 107.32 12.85 107.12 12.02 107.12H8.34V111.81Z" fill="#E60013"/>
<path d="M24.09 116.43L25.56 116.65C25.31 117.75 24.87 118.58 24.23 119.13C23.59 119.69 22.79 119.97 21.84 119.97C20.65 119.97 19.68 119.52 18.94 118.61C18.2 117.7 17.83 116.4 17.83 114.69C17.83 112.98 18.2 111.56 18.95 110.63C19.7 109.7 20.64 109.23 21.78 109.23C22.92 109.23 23.78 109.69 24.51 110.6C25.24 111.51 25.6 112.84 25.6 114.58V115.05H19.3C19.36 116.2 19.63 117.08 20.1 117.66C20.58 118.25 21.16 118.54 21.84 118.54C22.91 118.54 23.66 117.84 24.08 116.43H24.09ZM19.4 113.61H24.1C24.04 112.72 23.85 112.06 23.53 111.62C23.07 110.98 22.49 110.66 21.78 110.66C21.14 110.66 20.6 110.93 20.14 111.46C19.69 111.99 19.44 112.71 19.4 113.61Z" fill="#E60013"/>
<path d="M32.83 119.74V118.44C32.57 118.94 32.24 119.32 31.83 119.58C31.42 119.84 30.98 119.97 30.51 119.97C29.52 119.97 28.66 119.5 27.93 118.56C27.2 117.62 26.84 116.3 26.84 114.6C26.84 113.43 27 112.44 27.32 111.63C27.64 110.82 28.07 110.21 28.61 109.82C29.15 109.43 29.75 109.23 30.4 109.23C30.87 109.23 31.31 109.35 31.71 109.6C32.11 109.85 32.45 110.2 32.71 110.64V105.55H34.15V119.74H32.81H32.83ZM28.31 114.61C28.31 115.94 28.54 116.93 29 117.57C29.46 118.22 30 118.54 30.61 118.54C31.22 118.54 31.74 118.23 32.19 117.61C32.64 116.99 32.86 116.06 32.86 114.8C32.86 113.36 32.64 112.31 32.19 111.65C31.75 110.99 31.18 110.66 30.51 110.66C29.91 110.66 29.39 110.98 28.96 111.61C28.53 112.25 28.31 113.25 28.31 114.61Z" fill="#E60013"/>
<path d="M42.17 116.43L43.64 116.65C43.39 117.75 42.95 118.58 42.31 119.13C41.67 119.69 40.87 119.97 39.92 119.97C38.73 119.97 37.76 119.52 37.02 118.61C36.28 117.7 35.91 116.4 35.91 114.69C35.91 112.98 36.28 111.56 37.03 110.63C37.78 109.7 38.72 109.23 39.86 109.23C41 109.23 41.86 109.69 42.59 110.6C43.32 111.51 43.68 112.84 43.68 114.58V115.05H37.38C37.44 116.2 37.71 117.08 38.18 117.66C38.66 118.25 39.24 118.54 39.92 118.54C40.99 118.54 41.74 117.84 42.16 116.43H42.17ZM37.48 113.61H42.18C42.12 112.72 41.93 112.06 41.61 111.62C41.15 110.98 40.57 110.66 39.86 110.66C39.22 110.66 38.68 110.93 38.22 111.46C37.77 111.99 37.52 112.71 37.48 113.61Z" fill="#E60013"/>
<path d="M45.85 119.74V110.82H44.58V109.46H45.85V108.37C45.85 107.56 45.93 106.96 46.1 106.55C46.27 106.14 46.53 105.84 46.87 105.63C47.22 105.42 47.65 105.31 48.17 105.31C48.58 105.31 49.02 105.37 49.51 105.5L49.3 107.01C49 106.95 48.72 106.91 48.46 106.91C48.03 106.91 47.73 107.02 47.55 107.24C47.37 107.46 47.27 107.89 47.27 108.51V109.46H48.91V110.82H47.27V119.74H45.85Z" fill="#E60013"/>
<path d="M49.97 107.56V105.56H51.39V107.56H49.97ZM49.97 119.74V109.46H51.39V119.74H49.97Z" fill="#E60013"/>
<path d="M53.58 119.74V109.46H54.87V110.91C55.18 110.35 55.56 109.92 56 109.64C56.44 109.36 56.96 109.22 57.54 109.22C57.99 109.22 58.41 109.31 58.79 109.49C59.17 109.67 59.48 109.9 59.72 110.19C59.96 110.48 60.13 110.85 60.25 111.31C60.37 111.77 60.42 112.47 60.42 113.42V119.74H59V113.48C59 112.72 58.94 112.17 58.81 111.82C58.68 111.47 58.48 111.2 58.2 111.01C57.93 110.82 57.61 110.73 57.25 110.73C56.57 110.73 56.02 110.98 55.62 111.5C55.21 112.01 55.01 112.88 55.01 114.12V119.74H53.59H53.58Z" fill="#E60013"/>
<path d="M62.62 107.56V105.56H64.04V107.56H62.62ZM62.62 119.74V109.46H64.04V119.74H62.62Z" fill="#E60013"/>
<path d="M66.23 119.74V109.46H67.52V110.91C67.83 110.35 68.21 109.92 68.65 109.64C69.09 109.36 69.61 109.22 70.19 109.22C70.64 109.22 71.06 109.31 71.44 109.49C71.82 109.67 72.13 109.9 72.37 110.19C72.61 110.48 72.78 110.85 72.9 111.31C73.02 111.77 73.07 112.47 73.07 113.42V119.74H71.65V113.48C71.65 112.72 71.59 112.17 71.46 111.82C71.33 111.47 71.13 111.2 70.85 111.01C70.58 110.82 70.26 110.73 69.9 110.73C69.22 110.73 68.67 110.98 68.27 111.5C67.86 112.01 67.66 112.88 67.66 114.12V119.74H66.24H66.23Z" fill="#E60013"/>
<path d="M74.99 120.59L76.38 120.84C76.44 121.39 76.64 121.8 76.96 122.07C77.28 122.34 77.73 122.47 78.3 122.47C78.93 122.47 79.42 122.32 79.8 122.02C80.17 121.72 80.42 121.27 80.56 120.68C80.64 120.32 80.69 119.56 80.69 118.4C80.38 118.84 80.03 119.17 79.64 119.4C79.25 119.63 78.82 119.74 78.35 119.74C77.34 119.74 76.51 119.31 75.84 118.46C75.08 117.48 74.7 116.17 74.7 114.52C74.7 113.42 74.87 112.45 75.2 111.63C75.54 110.8 75.98 110.2 76.52 109.81C77.06 109.42 77.68 109.23 78.35 109.23C78.85 109.23 79.3 109.35 79.71 109.59C80.12 109.83 80.48 110.2 80.8 110.69V109.46H82.12V118.34C82.12 119.92 81.99 121.05 81.73 121.72C81.47 122.39 81.05 122.93 80.46 123.32C79.87 123.71 79.17 123.91 78.34 123.91C77.25 123.91 76.41 123.62 75.82 123.03C75.23 122.44 74.95 121.63 74.97 120.59H74.99ZM76.17 114.42C76.17 115.77 76.39 116.76 76.84 117.38C77.29 118 77.83 118.31 78.48 118.31C79.13 118.31 79.68 118.01 80.13 117.4C80.58 116.79 80.81 115.82 80.81 114.5C80.81 113.18 80.58 112.24 80.11 111.61C79.64 110.98 79.08 110.66 78.41 110.66C77.81 110.66 77.29 110.97 76.84 111.61C76.39 112.24 76.17 113.18 76.17 114.42Z" fill="#E60013"/>
<path d="M92 118.18L92.19 119.72C91.8 119.82 91.44 119.87 91.13 119.87C90.63 119.87 90.23 119.77 89.93 119.57C89.63 119.37 89.42 119.1 89.31 118.76C89.2 118.42 89.14 117.74 89.14 116.72V110.81H88.09V109.45H89.14V106.91L90.56 105.86V109.45H92V110.81H90.56V116.82C90.56 117.37 90.6 117.73 90.69 117.89C90.81 118.12 91.04 118.24 91.38 118.24C91.54 118.24 91.75 118.22 92.01 118.17L92 118.18Z" fill="#E60013"/>
<path d="M93.34 119.74V105.55H94.76V110.64C95.09 110.17 95.47 109.82 95.9 109.58C96.32 109.34 96.79 109.23 97.3 109.23C98.2 109.23 98.9 109.51 99.42 110.09C99.94 110.66 100.2 111.71 100.2 113.23V119.74H98.78V113.23C98.78 112.34 98.62 111.7 98.31 111.31C98 110.92 97.56 110.73 97 110.73C96.38 110.73 95.85 110.98 95.42 111.47C94.98 111.97 94.77 112.85 94.77 114.11V119.73H93.35L93.34 119.74Z" fill="#E60013"/>
<path d="M108.14 116.43L109.61 116.65C109.36 117.75 108.92 118.58 108.28 119.13C107.64 119.69 106.84 119.97 105.89 119.97C104.7 119.97 103.73 119.52 102.99 118.61C102.25 117.7 101.88 116.4 101.88 114.69C101.88 112.98 102.25 111.56 103 110.63C103.75 109.7 104.69 109.23 105.83 109.23C106.97 109.23 107.83 109.69 108.56 110.6C109.29 111.51 109.65 112.84 109.65 114.58V115.05H103.35C103.41 116.2 103.68 117.08 104.15 117.66C104.63 118.25 105.21 118.54 105.89 118.54C106.96 118.54 107.71 117.84 108.13 116.43H108.14ZM103.45 113.61H108.15C108.09 112.72 107.9 112.06 107.58 111.62C107.12 110.98 106.54 110.66 105.83 110.66C105.19 110.66 104.65 110.93 104.19 111.46C103.74 111.99 103.49 112.71 103.45 113.61Z" fill="#E60013"/>
<path d="M116.05 119.74V105.55H117.59V118.06H123.32V119.73H116.05V119.74Z" fill="#E60013"/>
<path d="M124.98 107.56V105.56H126.4V107.56H124.98ZM124.98 119.74V109.46H126.4V119.74H124.98Z" fill="#E60013"/>
<path d="M128.6 119.74V109.46H129.88V110.89C130.16 110.36 130.53 109.95 130.97 109.66C131.41 109.37 131.9 109.23 132.43 109.23C133.02 109.23 133.52 109.38 133.93 109.69C134.34 110 134.63 110.44 134.81 111.02C135.15 110.42 135.53 109.98 135.97 109.68C136.41 109.38 136.89 109.23 137.42 109.23C138.23 109.23 138.87 109.5 139.33 110.05C139.8 110.6 140.03 111.48 140.03 112.68V119.73H138.61V113.25C138.61 112.52 138.56 111.99 138.45 111.69C138.34 111.38 138.17 111.15 137.93 110.98C137.69 110.81 137.42 110.73 137.12 110.73C136.5 110.73 136 110.97 135.61 111.46C135.22 111.95 135.03 112.71 135.03 113.76V119.74H133.61V113.06C133.61 112.21 133.48 111.61 133.22 111.26C132.96 110.91 132.6 110.74 132.14 110.74C131.49 110.74 130.97 111 130.6 111.53C130.22 112.06 130.03 113.02 130.03 114.41V119.75H128.61L128.6 119.74Z" fill="#E60013"/>
<path d="M142.12 107.56V105.56H143.54V107.56H142.12ZM142.12 119.74V109.46H143.54V119.74H142.12Z" fill="#E60013"/>
<path d="M148.91 118.18L149.1 119.72C148.71 119.82 148.35 119.87 148.04 119.87C147.54 119.87 147.14 119.77 146.84 119.57C146.54 119.37 146.33 119.1 146.22 118.76C146.11 118.42 146.05 117.74 146.05 116.72V110.81H145V109.45H146.05V106.91L147.47 105.86V109.45H148.91V110.81H147.47V116.82C147.47 117.37 147.51 117.73 147.6 117.89C147.72 118.12 147.95 118.24 148.29 118.24C148.45 118.24 148.66 118.22 148.92 118.17L148.91 118.18Z" fill="#E60013"/>
<path d="M149.7 116.66L151.12 116.39C151.2 117.12 151.43 117.65 151.81 118.01C152.18 118.37 152.68 118.54 153.3 118.54C153.92 118.54 154.4 118.39 154.73 118.08C155.07 117.77 155.24 117.39 155.24 116.91C155.24 116.5 155.09 116.19 154.8 115.96C154.6 115.81 154.12 115.61 153.35 115.38C152.24 115.04 151.5 114.75 151.12 114.51C150.74 114.27 150.46 113.95 150.25 113.55C150.04 113.15 149.94 112.69 149.94 112.19C149.94 111.31 150.22 110.6 150.78 110.05C151.34 109.5 152.12 109.23 153.11 109.23C153.74 109.23 154.29 109.34 154.76 109.57C155.23 109.8 155.6 110.1 155.85 110.48C156.1 110.86 156.28 111.41 156.37 112.12L154.98 112.35C154.85 111.23 154.24 110.67 153.15 110.67C152.53 110.67 152.07 110.79 151.77 111.04C151.47 111.29 151.32 111.6 151.32 111.99C151.32 112.38 151.47 112.67 151.76 112.89C151.93 113.02 152.45 113.23 153.31 113.51C154.49 113.88 155.26 114.18 155.6 114.41C155.95 114.63 156.22 114.94 156.41 115.32C156.6 115.7 156.7 116.16 156.7 116.69C156.7 117.67 156.39 118.47 155.77 119.07C155.15 119.67 154.3 119.98 153.22 119.98C151.2 119.98 150.03 118.88 149.71 116.67L149.7 116.66Z" fill="#E60013"/>
<path d="M163.05 119.74V105.55H167.42C168.3 105.55 169.01 105.69 169.52 105.96C170.04 106.23 170.46 106.66 170.79 107.24C171.12 107.82 171.28 108.46 171.28 109.16C171.28 109.81 171.14 110.4 170.85 110.92C170.57 111.44 170.17 111.86 169.65 112.18C170.32 112.42 170.86 112.84 171.24 113.43C171.63 114.02 171.82 114.75 171.82 115.61C171.82 116.47 171.64 117.22 171.29 117.87C170.94 118.52 170.47 118.99 169.88 119.28C169.29 119.57 168.49 119.72 167.46 119.72H163.03L163.05 119.74ZM164.59 111.51H167.11C167.77 111.51 168.24 111.47 168.52 111.37C168.92 111.23 169.23 111.01 169.45 110.69C169.67 110.37 169.77 109.94 169.77 109.39C169.77 108.88 169.67 108.46 169.48 108.12C169.28 107.78 169.02 107.55 168.69 107.42C168.36 107.29 167.78 107.23 166.93 107.23H164.59V111.52V111.51ZM164.59 118.07H167.49C168.13 118.07 168.6 118.01 168.91 117.89C169.35 117.72 169.68 117.45 169.91 117.06C170.14 116.68 170.25 116.19 170.25 115.61C170.25 115.07 170.14 114.62 169.92 114.25C169.7 113.88 169.4 113.61 169.03 113.44C168.66 113.27 168.07 113.18 167.28 113.18H164.59V118.06V118.07Z" fill="#E60013"/>
<path d="M179.5 116.43L180.97 116.65C180.72 117.75 180.28 118.58 179.64 119.13C179 119.69 178.2 119.97 177.25 119.97C176.06 119.97 175.09 119.52 174.35 118.61C173.61 117.7 173.24 116.4 173.24 114.69C173.24 112.98 173.61 111.56 174.36 110.63C175.11 109.7 176.05 109.23 177.19 109.23C178.33 109.23 179.19 109.69 179.92 110.6C180.65 111.51 181.01 112.84 181.01 114.58V115.05H174.71C174.77 116.2 175.04 117.08 175.51 117.66C175.99 118.25 176.57 118.54 177.25 118.54C178.32 118.54 179.07 117.84 179.49 116.43H179.5ZM174.8 113.61H179.5C179.44 112.72 179.25 112.06 178.93 111.62C178.47 110.98 177.89 110.66 177.18 110.66C176.54 110.66 176 110.93 175.54 111.46C175.09 111.99 174.84 112.71 174.8 113.61Z" fill="#E60013"/>
<path d="M182.73 123.7L182.57 122.07C182.89 122.17 183.16 122.22 183.38 122.22C183.68 122.22 183.93 122.16 184.13 122.03C184.33 121.91 184.49 121.72 184.62 121.46C184.66 121.37 184.85 120.8 185.18 119.75L181.97 109.46H183.51L185.27 115.41C185.49 116.15 185.69 116.94 185.88 117.79C186.04 116.99 186.24 116.21 186.46 115.45L188.26 109.46H189.69L186.49 119.91C186.07 121.27 185.74 122.17 185.5 122.62C185.26 123.07 184.98 123.4 184.68 123.6C184.37 123.8 184.03 123.9 183.64 123.9C183.37 123.9 183.06 123.83 182.72 123.69L182.73 123.7Z" fill="#E60013"/>
<path d="M190.37 114.6C190.37 112.82 190.74 111.49 191.49 110.58C192.23 109.68 193.18 109.22 194.32 109.22C195.46 109.22 196.38 109.67 197.14 110.58C197.89 111.48 198.27 112.79 198.27 114.49C198.27 116.34 197.9 117.71 197.16 118.61C196.42 119.51 195.47 119.96 194.32 119.96C193.17 119.96 192.25 119.51 191.5 118.6C190.75 117.69 190.37 116.36 190.37 114.59V114.6ZM191.83 114.6C191.83 115.93 192.07 116.92 192.56 117.57C193.05 118.22 193.64 118.54 194.36 118.54C195.03 118.54 195.61 118.21 196.09 117.56C196.57 116.9 196.81 115.92 196.81 114.6C196.81 113.28 196.57 112.29 196.08 111.64C195.59 110.99 195 110.67 194.28 110.67C193.6 110.67 193.03 111 192.55 111.65C192.07 112.3 191.83 113.29 191.83 114.6Z" fill="#E60013"/>
<path d="M199.95 119.74V109.46H201.24V110.91C201.55 110.35 201.93 109.92 202.37 109.64C202.81 109.36 203.33 109.22 203.91 109.22C204.36 109.22 204.78 109.31 205.16 109.49C205.54 109.67 205.85 109.9 206.09 110.19C206.33 110.48 206.5 110.85 206.62 111.31C206.74 111.77 206.79 112.47 206.79 113.42V119.74H205.37V113.48C205.37 112.72 205.31 112.17 205.18 111.82C205.05 111.47 204.85 111.2 204.57 111.01C204.3 110.82 203.98 110.73 203.62 110.73C202.94 110.73 202.39 110.98 201.99 111.5C201.58 112.01 201.38 112.88 201.38 114.12V119.74H199.96H199.95Z" fill="#E60013"/>
<path d="M214.44 119.74V118.44C214.18 118.94 213.85 119.32 213.44 119.58C213.03 119.84 212.59 119.97 212.12 119.97C211.13 119.97 210.27 119.5 209.54 118.56C208.81 117.62 208.45 116.3 208.45 114.6C208.45 113.43 208.61 112.44 208.93 111.63C209.25 110.82 209.68 110.21 210.22 109.82C210.76 109.43 211.36 109.23 212.01 109.23C212.48 109.23 212.92 109.35 213.32 109.6C213.72 109.85 214.06 110.2 214.32 110.64V105.55H215.76V119.74H214.42H214.44ZM209.92 114.61C209.92 115.94 210.15 116.93 210.61 117.57C211.07 118.22 211.61 118.54 212.22 118.54C212.83 118.54 213.35 118.23 213.8 117.61C214.25 116.99 214.47 116.06 214.47 114.8C214.47 113.36 214.25 112.31 213.8 111.65C213.36 110.99 212.79 110.66 212.12 110.66C211.52 110.66 211 110.98 210.57 111.61C210.14 112.25 209.92 113.25 209.92 114.61Z" fill="#E60013"/>
<path d="M333.59 122.53C367.257 122.53 394.55 95.2373 394.55 61.57C394.55 27.9027 367.257 0.610001 333.59 0.610001C299.923 0.610001 272.63 27.9027 272.63 61.57C272.63 95.2373 299.923 122.53 333.59 122.53Z" fill="#E60013"/>
<path d="M333.59 93.05C350.976 93.05 365.07 78.9559 365.07 61.57C365.07 44.1841 350.976 30.09 333.59 30.09C316.204 30.09 302.11 44.1841 302.11 61.57C302.11 78.9559 316.204 93.05 333.59 93.05Z" fill="black"/>
<path d="M51.11 75.66C51.11 77.55 51.78 79.17 53.12 80.51C54.46 81.85 56.08 82.52 57.97 82.52C59.86 82.52 61.48 81.85 62.82 80.51C64.16 79.17 64.83 77.55 64.83 75.66V63.65H69.98V75.66C69.98 78.98 68.81 81.82 66.47 84.16C64.13 86.5 61.3 87.67 57.97 87.67C54.64 87.67 51.81 86.5 49.47 84.16C47.13 81.82 45.96 78.99 45.96 75.66V63.65H51.11V75.66Z" fill="#DCDDDD"/>
<path d="M57.98 88.05C54.57 88.05 51.61 86.83 49.21 84.43C46.81 82.03 45.59 79.08 45.59 75.66V63.27H51.5V75.66C51.5 77.44 52.14 78.98 53.4 80.24C54.66 81.5 56.2 82.14 57.98 82.14C59.76 82.14 61.3 81.5 62.56 80.24C63.82 78.98 64.46 77.44 64.46 75.66V63.27H70.37V75.66C70.37 79.07 69.15 82.02 66.75 84.43C64.35 86.83 61.39 88.05 57.98 88.05ZM46.35 64.03V75.66C46.35 78.86 47.49 81.63 49.75 83.89C52.01 86.15 54.77 87.29 57.98 87.29C61.19 87.29 63.95 86.15 66.21 83.89C68.47 81.63 69.61 78.87 69.61 75.66V64.03H65.23V75.66C65.23 77.65 64.52 79.37 63.11 80.78C61.7 82.19 59.98 82.9 57.99 82.9C56 82.9 54.27 82.19 52.87 80.78C51.46 79.37 50.75 77.65 50.75 75.66V64.03H46.37H46.35Z" fill="#DCDDDD"/>
<path d="M117.01 87.67H111.86V75.66C111.86 72.34 113.03 69.5 115.37 67.16C117.71 64.82 120.54 63.65 123.87 63.65C127.2 63.65 130.03 64.82 132.37 67.16C134.71 69.5 135.88 72.33 135.88 75.66V87.67H130.73V75.66C130.73 73.77 130.06 72.15 128.72 70.81C127.38 69.47 125.76 68.8 123.87 68.8C121.98 68.8 120.36 69.47 119.02 70.81C117.68 72.15 117.01 73.77 117.01 75.66V87.67Z" fill="#DCDDDD"/>
<path d="M136.26 88.05H130.35V75.66C130.35 73.88 129.71 72.34 128.45 71.08C127.19 69.82 125.65 69.18 123.87 69.18C122.09 69.18 120.55 69.82 119.29 71.08C118.03 72.34 117.39 73.88 117.39 75.66V88.05H111.48V75.66C111.48 72.25 112.7 69.3 115.1 66.89C117.5 64.49 120.46 63.27 123.87 63.27C127.28 63.27 130.23 64.49 132.64 66.89C135.05 69.3 136.26 72.25 136.26 75.66V88.05ZM131.12 87.28H135.5V75.65C135.5 72.45 134.36 69.68 132.1 67.42C129.84 65.16 127.08 64.02 123.87 64.02C120.66 64.02 117.9 65.16 115.64 67.42C113.38 69.68 112.24 72.44 112.24 75.65V87.28H116.62V75.65C116.62 73.66 117.33 71.93 118.74 70.53C120.15 69.12 121.87 68.41 123.86 68.41C125.85 68.41 127.58 69.12 128.98 70.53C130.39 71.94 131.1 73.66 131.1 75.65V87.28H131.12Z" fill="#DCDDDD"/>
<path d="M149.95 68.79V75.65C149.95 77.54 150.62 79.16 151.96 80.5C153.3 81.84 154.92 82.51 156.81 82.51V87.66C153.49 87.66 150.65 86.49 148.31 84.15C145.97 81.81 144.8 78.98 144.8 75.65V56.77H149.95V63.63H156.81V68.78H149.95V68.79Z" fill="#DCDDDD"/>
<path d="M157.2 88.05H156.82C153.41 88.05 150.45 86.83 148.05 84.43C145.64 82.03 144.43 79.08 144.43 75.66V56.4H150.34V63.26H157.2V69.17H150.34V75.65C150.34 77.43 150.98 78.97 152.24 80.23C153.52 81.51 155.02 82.13 156.82 82.13H157.2V88.04V88.05ZM145.19 57.16V75.65C145.19 78.85 146.33 81.62 148.59 83.88C150.76 86.05 153.39 87.19 156.44 87.27V82.88C154.61 82.79 153.02 82.08 151.7 80.77C150.29 79.36 149.58 77.64 149.58 75.65V68.4H156.44V64.02H149.58V57.16H145.2H145.19Z" fill="#DCDDDD"/>
<path d="M170.35 75.66C170.35 77.55 171.02 79.17 172.36 80.51C173.7 81.85 175.32 82.52 177.21 82.52C179.1 82.52 180.72 81.85 182.06 80.51C183.4 79.17 184.07 77.55 184.07 75.66V63.65H189.22V75.66C189.22 78.98 188.05 81.82 185.71 84.16C183.37 86.5 180.54 87.67 177.21 87.67C173.88 87.67 171.05 86.5 168.71 84.16C166.37 81.82 165.2 78.99 165.2 75.66V63.65H170.35V75.66Z" fill="#DCDDDD"/>
<path d="M177.22 88.05C173.8 88.05 170.85 86.83 168.45 84.43C166.04 82.03 164.83 79.08 164.83 75.66V63.27H170.74V75.66C170.74 77.44 171.38 78.98 172.64 80.24C173.9 81.5 175.44 82.14 177.22 82.14C179 82.14 180.54 81.5 181.8 80.24C183.06 78.98 183.7 77.44 183.7 75.66V63.27H189.61V75.66C189.61 79.07 188.39 82.02 185.99 84.43C183.59 86.83 180.63 88.05 177.22 88.05ZM165.59 64.03V75.66C165.59 78.86 166.73 81.63 168.99 83.89C171.25 86.15 174.01 87.29 177.22 87.29C180.43 87.29 183.19 86.15 185.45 83.89C187.71 81.63 188.85 78.87 188.85 75.66V64.03H184.47V75.66C184.47 77.65 183.76 79.38 182.35 80.78C180.94 82.19 179.22 82.9 177.23 82.9C175.24 82.9 173.51 82.19 172.11 80.78C170.7 79.37 169.99 77.65 169.99 75.66V64.03H165.61H165.59Z" fill="#DCDDDD"/>
<path d="M216.54 75.66C216.54 73.77 215.87 72.15 214.53 70.81C213.19 69.47 211.57 68.8 209.68 68.8C207.79 68.8 206.17 69.47 204.83 70.81C203.49 72.15 202.82 73.77 202.82 75.66V87.67H197.67V75.66C197.67 72.34 198.84 69.5 201.18 67.16C203.52 64.82 206.35 63.65 209.68 63.65C213.01 63.65 215.84 64.82 218.18 67.16C218.52 67.5 218.83 67.85 219.12 68.21C219.41 67.85 219.72 67.5 220.06 67.16C222.4 64.82 225.23 63.65 228.56 63.65C231.89 63.65 234.72 64.82 237.06 67.16C239.4 69.5 240.57 72.33 240.57 75.66V87.67H235.42V75.66C235.42 73.77 234.75 72.15 233.41 70.81C232.07 69.47 230.45 68.8 228.56 68.8C226.67 68.8 225.05 69.47 223.71 70.81C222.37 72.15 221.7 73.77 221.7 75.66V87.67H216.55V75.66H216.54Z" fill="#DCDDDD"/>
<path d="M240.95 88.05H235.04V75.66C235.04 73.88 234.4 72.34 233.14 71.08C231.88 69.82 230.34 69.18 228.56 69.18C226.78 69.18 225.26 69.8 223.98 71.08C222.72 72.34 222.08 73.88 222.08 75.66V88.05H216.17V75.66C216.17 73.88 215.53 72.34 214.27 71.08C213.01 69.82 211.47 69.18 209.69 69.18C207.91 69.18 206.39 69.8 205.11 71.08C203.85 72.34 203.21 73.88 203.21 75.66V88.05H197.3V75.66C197.3 72.25 198.52 69.29 200.92 66.89C203.32 64.49 206.27 63.27 209.69 63.27C213.11 63.27 216.05 64.49 218.46 66.89C218.69 67.12 218.92 67.36 219.13 67.61C219.34 67.37 219.56 67.13 219.8 66.89C222.2 64.49 225.15 63.27 228.57 63.27C231.99 63.27 234.94 64.49 237.34 66.89C239.75 69.3 240.96 72.25 240.96 75.66V88.05H240.95ZM235.8 87.28H240.18V75.65C240.18 72.45 239.04 69.68 236.78 67.42C234.52 65.16 231.76 64.02 228.55 64.02C225.34 64.02 222.58 65.16 220.32 67.42C219.99 67.75 219.68 68.09 219.41 68.43L219.11 68.8L218.81 68.43C218.53 68.09 218.23 67.74 217.9 67.41C215.64 65.15 212.88 64.01 209.67 64.01C206.46 64.01 203.7 65.15 201.44 67.41C199.18 69.67 198.04 72.43 198.04 75.64V87.27H202.42V75.64C202.42 73.65 203.13 71.92 204.54 70.52C205.95 69.11 207.67 68.4 209.66 68.4C211.65 68.4 213.37 69.11 214.78 70.52C216.19 71.93 216.9 73.65 216.9 75.64V87.27H221.28V75.64C221.28 73.65 221.99 71.93 223.4 70.52C224.81 69.11 226.53 68.4 228.52 68.4C230.51 68.4 232.23 69.11 233.64 70.52C235.05 71.93 235.76 73.65 235.76 75.64V87.27L235.8 87.28Z" fill="#DCDDDD"/>
<path d="M102.9 87.64H97.75V85.52C95.77 86.93 93.48 87.64 90.89 87.64C87.57 87.64 84.73 86.47 82.39 84.13C80.05 81.79 78.88 78.96 78.88 75.63C78.88 72.3 80.05 69.47 82.39 67.13C84.73 64.79 87.56 63.62 90.89 63.62C94.22 63.62 97.05 64.79 99.39 67.13C101.73 69.47 102.9 72.3 102.9 75.63V87.64ZM90.89 68.76C89 68.76 87.38 69.43 86.04 70.77C84.7 72.11 84.03 73.73 84.03 75.62C84.03 77.51 84.7 79.13 86.04 80.47C87.38 81.81 89 82.48 90.89 82.48C92.78 82.48 94.4 81.81 95.74 80.47C97.08 79.13 97.75 77.51 97.75 75.62C97.75 73.73 97.08 72.11 95.74 70.77C94.4 69.43 92.78 68.76 90.89 68.76Z" fill="#DCDDDD"/>
<path d="M103.28 88.02H97.37V86.23C95.47 87.42 93.29 88.02 90.89 88.02C87.48 88.02 84.53 86.8 82.12 84.4C79.71 82 78.5 79.04 78.5 75.63C78.5 72.22 79.72 69.27 82.12 66.86C84.52 64.45 87.47 63.24 90.89 63.24C94.31 63.24 97.25 64.46 99.66 66.86C102.07 69.26 103.28 72.22 103.28 75.63V88.02ZM98.13 87.26H102.51V75.63C102.51 72.43 101.37 69.66 99.11 67.4C96.85 65.14 94.09 64 90.88 64C87.67 64 84.91 65.14 82.65 67.4C80.39 69.66 79.25 72.42 79.25 75.63C79.25 78.84 80.39 81.6 82.65 83.86C84.91 86.12 87.67 87.26 90.88 87.26C93.38 87.26 95.61 86.57 97.52 85.21L98.12 84.78V87.26H98.13ZM90.89 82.87C88.9 82.87 87.17 82.16 85.77 80.75C84.37 79.34 83.65 77.62 83.65 75.63C83.65 73.64 84.36 71.92 85.77 70.51C87.18 69.1 88.9 68.39 90.89 68.39C92.88 68.39 94.6 69.1 96.01 70.51C97.42 71.92 98.13 73.64 98.13 75.63C98.13 77.62 97.42 79.35 96.01 80.75C94.6 82.16 92.88 82.87 90.89 82.87ZM90.89 69.15C89.11 69.15 87.57 69.79 86.31 71.05C85.03 72.33 84.41 73.83 84.41 75.63C84.41 77.43 85.05 78.95 86.31 80.21C87.57 81.47 89.11 82.11 90.89 82.11C92.67 82.11 94.21 81.47 95.47 80.21C96.73 78.95 97.37 77.41 97.37 75.63C97.37 73.85 96.75 72.33 95.47 71.05C94.21 69.79 92.67 69.15 90.89 69.15Z" fill="#DCDDDD"/>
<path d="M261.46 65.23H259.86V98.31H261.46V65.23Z" fill="#DCDDDD"/>
<path d="M261.84 98.69H259.48V64.85H261.84V98.69ZM260.24 97.92H261.08V65.61H260.24V97.92Z" fill="#DCDDDD"/>
<path d="M18.58 87.72C13.65 87.72 9.44 85.98 5.97 82.51C2.5 79.04 0.759995 74.83 0.759995 69.9C0.759995 64.97 2.5 60.77 5.97 57.29C9.44 53.82 13.65 52.08 18.58 52.08C23.51 52.08 27.71 53.82 31.19 57.29C34.66 60.76 36.4 64.97 36.4 69.9C36.4 74.83 34.66 79.04 31.19 82.51C27.72 85.98 23.51 87.72 18.58 87.72ZM27.53 78.84C30 76.37 31.24 73.39 31.24 69.9C31.24 66.41 30.01 63.43 27.53 60.96C25.06 58.49 22.08 57.25 18.59 57.25C15.1 57.25 12.12 58.49 9.64999 60.96C7.17999 63.43 5.94 66.41 5.94 69.9C5.94 73.39 7.16999 76.37 9.64999 78.84C12.12 81.31 15.1 82.55 18.59 82.55C22.08 82.55 25.06 81.32 27.53 78.84Z" fill="#DCDDDD"/>
<path d="M18.58 88.1C13.57 88.1 9.23001 86.31 5.70001 82.78C2.17001 79.25 0.380005 74.92 0.380005 69.9C0.380005 64.88 2.17001 60.55 5.70001 57.02C9.23001 53.49 13.56 51.7 18.58 51.7C23.6 51.7 27.93 53.49 31.46 57.02C34.99 60.55 36.78 64.89 36.78 69.9C36.78 74.91 34.99 79.25 31.46 82.78C27.93 86.31 23.59 88.1 18.58 88.1ZM18.58 52.46C13.78 52.46 9.61999 54.18 6.23999 57.56C2.85999 60.94 1.14001 65.09 1.14001 69.9C1.14001 74.71 2.85999 78.86 6.23999 82.24C9.61999 85.62 13.77 87.34 18.58 87.34C23.39 87.34 27.54 85.62 30.92 82.24C34.3 78.86 36.02 74.71 36.02 69.9C36.02 65.09 34.3 60.95 30.92 57.56C27.54 54.18 23.39 52.46 18.58 52.46ZM18.58 82.93C15 82.93 11.9 81.65 9.37 79.11C6.84 76.58 5.54999 73.48 5.54999 69.9C5.54999 66.32 6.83 63.22 9.37 60.69C11.9 58.16 15 56.87 18.58 56.87C22.16 56.87 25.26 58.15 27.79 60.69C30.32 63.22 31.61 66.32 31.61 69.9C31.61 73.48 30.33 76.58 27.79 79.11C25.26 81.64 22.16 82.93 18.58 82.93ZM18.58 57.63C15.21 57.63 12.29 58.84 9.91 61.22C7.53 63.6 6.32001 66.52 6.32001 69.89C6.32001 73.26 7.53 76.18 9.91 78.56C12.29 80.94 15.21 82.15 18.58 82.15C21.95 82.15 24.87 80.94 27.25 78.56C29.63 76.18 30.84 73.26 30.84 69.89C30.84 66.52 29.63 63.6 27.25 61.22C24.87 58.84 21.95 57.63 18.58 57.63Z" fill="#DCDDDD"/>
<path d="M322.86 56.73V87.37H317.75V56.73H322.86Z" fill="#DCDDDD"/>
<path d="M323.25 87.75H317.38V56.35H323.25V87.75ZM318.14 86.98H322.48V57.11H318.14V86.98Z" fill="#DCDDDD"/>
<path d="M287.47 87.86H282.55V68.23C282.55 65.05 283.67 62.34 285.91 60.1C288.15 57.86 290.86 56.74 294.04 56.74C297.22 56.74 299.93 57.86 302.17 60.1C304.41 62.34 305.53 65.05 305.53 68.23V87.86H300.61V68.23C300.61 66.42 299.97 64.87 298.69 63.59C297.41 62.31 295.86 61.67 294.05 61.67C292.24 61.67 290.69 62.31 289.41 63.59C288.13 64.87 287.49 66.42 287.49 68.23V87.86H287.47Z" fill="#DCDDDD"/>
<path d="M305.89 88.24H300.2V68.23C300.2 66.53 299.59 65.06 298.39 63.86C297.19 62.66 295.72 62.05 294.02 62.05C292.32 62.05 290.87 62.64 289.65 63.86C288.45 65.06 287.84 66.53 287.84 68.23V88.24H282.15V68.23C282.15 64.96 283.32 62.14 285.62 59.83C287.92 57.53 290.75 56.36 294.02 56.36C297.29 56.36 300.11 57.53 302.42 59.83C304.72 62.13 305.89 64.96 305.89 68.23V88.24ZM300.97 87.48H305.13V68.23C305.13 65.17 304.04 62.53 301.88 60.37C299.73 58.22 297.08 57.12 294.02 57.12C290.96 57.12 288.32 58.21 286.16 60.37C284.01 62.52 282.91 65.17 282.91 68.23V87.48H287.07V68.23C287.07 66.32 287.75 64.67 289.1 63.32C290.45 61.97 292.1 61.29 294.01 61.29C295.92 61.29 297.57 61.97 298.92 63.32C300.27 64.67 300.95 66.32 300.95 68.23V87.48H300.97Z" fill="#DCDDDD"/>
<path d="M340.95 68.97V75.83C340.95 77.72 341.62 79.34 342.96 80.68C344.3 82.02 345.92 82.69 347.81 82.69V87.84C344.49 87.84 341.65 86.67 339.31 84.33C336.97 81.99 335.8 79.16 335.8 75.83V56.95H340.95V68.96V68.97Z" fill="#DCDDDD"/>
<path d="M348.19 88.23H347.81C344.4 88.23 341.45 87.01 339.04 84.61C336.63 82.21 335.42 79.26 335.42 75.84V56.58H341.33V75.84C341.33 77.65 341.95 79.14 343.23 80.42C344.49 81.68 346.03 82.32 347.81 82.32H348.19V88.23ZM336.18 57.34V75.83C336.18 79.03 337.32 81.8 339.58 84.06C341.75 86.23 344.38 87.37 347.43 87.45V83.06C345.6 82.97 344.01 82.26 342.69 80.95C341.28 79.54 340.57 77.82 340.57 75.83V57.34H336.19H336.18Z" fill="#DCDDDD"/>
<path d="M25.77 74.49L36.44 81.43V87.3L25.77 80.36V74.49Z" fill="#DCDDDD"/>
<path d="M36.83 88L25.39 80.57V73.79L36.83 81.22V88ZM26.16 80.15L36.07 86.59V81.63L26.16 75.19V80.15Z" fill="#DCDDDD"/>
<path d="M6.79999 119.74V105.55H11.96C13.04 105.55 13.83 105.68 14.34 105.95C14.85 106.21 15.27 106.65 15.6 107.27C15.93 107.88 16.09 108.6 16.09 109.41C16.09 110.48 15.81 111.35 15.25 112.01C14.69 112.67 13.88 113.1 12.82 113.28C13.25 113.54 13.58 113.8 13.81 114.07C14.27 114.61 14.67 115.22 15.02 115.88L17.05 119.74H15.11L13.56 116.79C12.96 115.64 12.51 114.86 12.2 114.46C11.89 114.06 11.6 113.79 11.31 113.65C11.02 113.51 10.62 113.44 10.11 113.44H8.32999V119.74H6.79001H6.79999ZM8.34 111.81H11.65C12.37 111.81 12.92 111.72 13.3 111.55C13.67 111.37 13.97 111.1 14.19 110.73C14.41 110.36 14.52 109.92 14.52 109.42C14.52 108.7 14.31 108.14 13.89 107.73C13.47 107.32 12.85 107.12 12.02 107.12H8.34V111.81Z" fill="#E60013"/>
<path d="M24.09 116.43L25.56 116.65C25.31 117.75 24.87 118.58 24.23 119.13C23.59 119.69 22.79 119.97 21.84 119.97C20.65 119.97 19.68 119.52 18.94 118.61C18.2 117.7 17.83 116.4 17.83 114.69C17.83 112.98 18.2 111.56 18.95 110.63C19.7 109.7 20.64 109.23 21.78 109.23C22.92 109.23 23.78 109.69 24.51 110.6C25.24 111.51 25.6 112.84 25.6 114.58V115.05H19.3C19.36 116.2 19.63 117.08 20.1 117.66C20.58 118.25 21.16 118.54 21.84 118.54C22.91 118.54 23.66 117.84 24.08 116.43H24.09ZM19.4 113.61H24.1C24.04 112.72 23.85 112.06 23.53 111.62C23.07 110.98 22.49 110.66 21.78 110.66C21.14 110.66 20.6 110.93 20.14 111.46C19.69 111.99 19.44 112.71 19.4 113.61Z" fill="#E60013"/>
<path d="M32.83 119.74V118.44C32.57 118.94 32.24 119.32 31.83 119.58C31.42 119.84 30.98 119.97 30.51 119.97C29.52 119.97 28.66 119.5 27.93 118.56C27.2 117.62 26.84 116.3 26.84 114.6C26.84 113.43 27 112.44 27.32 111.63C27.64 110.82 28.07 110.21 28.61 109.82C29.15 109.43 29.75 109.23 30.4 109.23C30.87 109.23 31.31 109.35 31.71 109.6C32.11 109.85 32.45 110.2 32.71 110.64V105.55H34.15V119.74H32.81H32.83ZM28.31 114.61C28.31 115.94 28.54 116.93 29 117.57C29.46 118.22 30 118.54 30.61 118.54C31.22 118.54 31.74 118.23 32.19 117.61C32.64 116.99 32.86 116.06 32.86 114.8C32.86 113.36 32.64 112.31 32.19 111.65C31.75 110.99 31.18 110.66 30.51 110.66C29.91 110.66 29.39 110.98 28.96 111.61C28.53 112.25 28.31 113.25 28.31 114.61Z" fill="#E60013"/>
<path d="M42.17 116.43L43.64 116.65C43.39 117.75 42.95 118.58 42.31 119.13C41.67 119.69 40.87 119.97 39.92 119.97C38.73 119.97 37.76 119.52 37.02 118.61C36.28 117.7 35.91 116.4 35.91 114.69C35.91 112.98 36.28 111.56 37.03 110.63C37.78 109.7 38.72 109.23 39.86 109.23C41 109.23 41.86 109.69 42.59 110.6C43.32 111.51 43.68 112.84 43.68 114.58V115.05H37.38C37.44 116.2 37.71 117.08 38.18 117.66C38.66 118.25 39.24 118.54 39.92 118.54C40.99 118.54 41.74 117.84 42.16 116.43H42.17ZM37.48 113.61H42.18C42.12 112.72 41.93 112.06 41.61 111.62C41.15 110.98 40.57 110.66 39.86 110.66C39.22 110.66 38.68 110.93 38.22 111.46C37.77 111.99 37.52 112.71 37.48 113.61Z" fill="#E60013"/>
<path d="M45.85 119.74V110.82H44.58V109.46H45.85V108.37C45.85 107.56 45.93 106.96 46.1 106.55C46.27 106.14 46.53 105.84 46.87 105.63C47.22 105.42 47.65 105.31 48.17 105.31C48.58 105.31 49.02 105.37 49.51 105.5L49.3 107.01C49 106.95 48.72 106.91 48.46 106.91C48.03 106.91 47.73 107.02 47.55 107.24C47.37 107.46 47.27 107.89 47.27 108.51V109.46H48.91V110.82H47.27V119.74H45.85Z" fill="#E60013"/>
<path d="M49.97 107.56V105.56H51.39V107.56H49.97ZM49.97 119.74V109.46H51.39V119.74H49.97Z" fill="#E60013"/>
<path d="M53.58 119.74V109.46H54.87V110.91C55.18 110.35 55.56 109.92 56 109.64C56.44 109.36 56.96 109.22 57.54 109.22C57.99 109.22 58.41 109.31 58.79 109.49C59.17 109.67 59.48 109.9 59.72 110.19C59.96 110.48 60.13 110.85 60.25 111.31C60.37 111.77 60.42 112.47 60.42 113.42V119.74H59V113.48C59 112.72 58.94 112.17 58.81 111.82C58.68 111.47 58.48 111.2 58.2 111.01C57.93 110.82 57.61 110.73 57.25 110.73C56.57 110.73 56.02 110.98 55.62 111.5C55.21 112.01 55.01 112.88 55.01 114.12V119.74H53.59H53.58Z" fill="#E60013"/>
<path d="M62.62 107.56V105.56H64.04V107.56H62.62ZM62.62 119.74V109.46H64.04V119.74H62.62Z" fill="#E60013"/>
<path d="M66.23 119.74V109.46H67.52V110.91C67.83 110.35 68.21 109.92 68.65 109.64C69.09 109.36 69.61 109.22 70.19 109.22C70.64 109.22 71.06 109.31 71.44 109.49C71.82 109.67 72.13 109.9 72.37 110.19C72.61 110.48 72.78 110.85 72.9 111.31C73.02 111.77 73.07 112.47 73.07 113.42V119.74H71.65V113.48C71.65 112.72 71.59 112.17 71.46 111.82C71.33 111.47 71.13 111.2 70.85 111.01C70.58 110.82 70.26 110.73 69.9 110.73C69.22 110.73 68.67 110.98 68.27 111.5C67.86 112.01 67.66 112.88 67.66 114.12V119.74H66.24H66.23Z" fill="#E60013"/>
<path d="M74.99 120.59L76.38 120.84C76.44 121.39 76.64 121.8 76.96 122.07C77.28 122.34 77.73 122.47 78.3 122.47C78.93 122.47 79.42 122.32 79.8 122.02C80.17 121.72 80.42 121.27 80.56 120.68C80.64 120.32 80.69 119.56 80.69 118.4C80.38 118.84 80.03 119.17 79.64 119.4C79.25 119.63 78.82 119.74 78.35 119.74C77.34 119.74 76.51 119.31 75.84 118.46C75.08 117.48 74.7 116.17 74.7 114.52C74.7 113.42 74.87 112.45 75.2 111.63C75.54 110.8 75.98 110.2 76.52 109.81C77.06 109.42 77.68 109.23 78.35 109.23C78.85 109.23 79.3 109.35 79.71 109.59C80.12 109.83 80.48 110.2 80.8 110.69V109.46H82.12V118.34C82.12 119.92 81.99 121.05 81.73 121.72C81.47 122.39 81.05 122.93 80.46 123.32C79.87 123.71 79.17 123.91 78.34 123.91C77.25 123.91 76.41 123.62 75.82 123.03C75.23 122.44 74.95 121.63 74.97 120.59H74.99ZM76.17 114.42C76.17 115.77 76.39 116.76 76.84 117.38C77.29 118 77.83 118.31 78.48 118.31C79.13 118.31 79.68 118.01 80.13 117.4C80.58 116.79 80.81 115.82 80.81 114.5C80.81 113.18 80.58 112.24 80.11 111.61C79.64 110.98 79.08 110.66 78.41 110.66C77.81 110.66 77.29 110.97 76.84 111.61C76.39 112.24 76.17 113.18 76.17 114.42Z" fill="#E60013"/>
<path d="M92 118.18L92.19 119.72C91.8 119.82 91.44 119.87 91.13 119.87C90.63 119.87 90.23 119.77 89.93 119.57C89.63 119.37 89.42 119.1 89.31 118.76C89.2 118.42 89.14 117.74 89.14 116.72V110.81H88.09V109.45H89.14V106.91L90.56 105.86V109.45H92V110.81H90.56V116.82C90.56 117.37 90.6 117.73 90.69 117.89C90.81 118.12 91.04 118.24 91.38 118.24C91.54 118.24 91.75 118.22 92.01 118.17L92 118.18Z" fill="#E60013"/>
<path d="M93.34 119.74V105.55H94.76V110.64C95.09 110.17 95.47 109.82 95.9 109.58C96.32 109.34 96.79 109.23 97.3 109.23C98.2 109.23 98.9 109.51 99.42 110.09C99.94 110.66 100.2 111.71 100.2 113.23V119.74H98.78V113.23C98.78 112.34 98.62 111.7 98.31 111.31C98 110.92 97.56 110.73 97 110.73C96.38 110.73 95.85 110.98 95.42 111.47C94.98 111.97 94.77 112.85 94.77 114.11V119.73H93.35L93.34 119.74Z" fill="#E60013"/>
<path d="M108.14 116.43L109.61 116.65C109.36 117.75 108.92 118.58 108.28 119.13C107.64 119.69 106.84 119.97 105.89 119.97C104.7 119.97 103.73 119.52 102.99 118.61C102.25 117.7 101.88 116.4 101.88 114.69C101.88 112.98 102.25 111.56 103 110.63C103.75 109.7 104.69 109.23 105.83 109.23C106.97 109.23 107.83 109.69 108.56 110.6C109.29 111.51 109.65 112.84 109.65 114.58V115.05H103.35C103.41 116.2 103.68 117.08 104.15 117.66C104.63 118.25 105.21 118.54 105.89 118.54C106.96 118.54 107.71 117.84 108.13 116.43H108.14ZM103.45 113.61H108.15C108.09 112.72 107.9 112.06 107.58 111.62C107.12 110.98 106.54 110.66 105.83 110.66C105.19 110.66 104.65 110.93 104.19 111.46C103.74 111.99 103.49 112.71 103.45 113.61Z" fill="#E60013"/>
<path d="M116.05 119.74V105.55H117.59V118.06H123.32V119.73H116.05V119.74Z" fill="#E60013"/>
<path d="M124.98 107.56V105.56H126.4V107.56H124.98ZM124.98 119.74V109.46H126.4V119.74H124.98Z" fill="#E60013"/>
<path d="M128.6 119.74V109.46H129.88V110.89C130.16 110.36 130.53 109.95 130.97 109.66C131.41 109.37 131.9 109.23 132.43 109.23C133.02 109.23 133.52 109.38 133.93 109.69C134.34 110 134.63 110.44 134.81 111.02C135.15 110.42 135.53 109.98 135.97 109.68C136.41 109.38 136.89 109.23 137.42 109.23C138.23 109.23 138.87 109.5 139.33 110.05C139.8 110.6 140.03 111.48 140.03 112.68V119.73H138.61V113.25C138.61 112.52 138.56 111.99 138.45 111.69C138.34 111.38 138.17 111.15 137.93 110.98C137.69 110.81 137.42 110.73 137.12 110.73C136.5 110.73 136 110.97 135.61 111.46C135.22 111.95 135.03 112.71 135.03 113.76V119.74H133.61V113.06C133.61 112.21 133.48 111.61 133.22 111.26C132.96 110.91 132.6 110.74 132.14 110.74C131.49 110.74 130.97 111 130.6 111.53C130.22 112.06 130.03 113.02 130.03 114.41V119.75H128.61L128.6 119.74Z" fill="#E60013"/>
<path d="M142.12 107.56V105.56H143.54V107.56H142.12ZM142.12 119.74V109.46H143.54V119.74H142.12Z" fill="#E60013"/>
<path d="M148.91 118.18L149.1 119.72C148.71 119.82 148.35 119.87 148.04 119.87C147.54 119.87 147.14 119.77 146.84 119.57C146.54 119.37 146.33 119.1 146.22 118.76C146.11 118.42 146.05 117.74 146.05 116.72V110.81H145V109.45H146.05V106.91L147.47 105.86V109.45H148.91V110.81H147.47V116.82C147.47 117.37 147.51 117.73 147.6 117.89C147.72 118.12 147.95 118.24 148.29 118.24C148.45 118.24 148.66 118.22 148.92 118.17L148.91 118.18Z" fill="#E60013"/>
<path d="M149.7 116.66L151.12 116.39C151.2 117.12 151.43 117.65 151.81 118.01C152.18 118.37 152.68 118.54 153.3 118.54C153.92 118.54 154.4 118.39 154.73 118.08C155.07 117.77 155.24 117.39 155.24 116.91C155.24 116.5 155.09 116.19 154.8 115.96C154.6 115.81 154.12 115.61 153.35 115.38C152.24 115.04 151.5 114.75 151.12 114.51C150.74 114.27 150.46 113.95 150.25 113.55C150.04 113.15 149.94 112.69 149.94 112.19C149.94 111.31 150.22 110.6 150.78 110.05C151.34 109.5 152.12 109.23 153.11 109.23C153.74 109.23 154.29 109.34 154.76 109.57C155.23 109.8 155.6 110.1 155.85 110.48C156.1 110.86 156.28 111.41 156.37 112.12L154.98 112.35C154.85 111.23 154.24 110.67 153.15 110.67C152.53 110.67 152.07 110.79 151.77 111.04C151.47 111.29 151.32 111.6 151.32 111.99C151.32 112.38 151.47 112.67 151.76 112.89C151.93 113.02 152.45 113.23 153.31 113.51C154.49 113.88 155.26 114.18 155.6 114.41C155.95 114.63 156.22 114.94 156.41 115.32C156.6 115.7 156.7 116.16 156.7 116.69C156.7 117.67 156.39 118.47 155.77 119.07C155.15 119.67 154.3 119.98 153.22 119.98C151.2 119.98 150.03 118.88 149.71 116.67L149.7 116.66Z" fill="#E60013"/>
<path d="M163.05 119.74V105.55H167.42C168.3 105.55 169.01 105.69 169.52 105.96C170.04 106.23 170.46 106.66 170.79 107.24C171.12 107.82 171.28 108.46 171.28 109.16C171.28 109.81 171.14 110.4 170.85 110.92C170.57 111.44 170.17 111.86 169.65 112.18C170.32 112.42 170.86 112.84 171.24 113.43C171.63 114.02 171.82 114.75 171.82 115.61C171.82 116.47 171.64 117.22 171.29 117.87C170.94 118.52 170.47 118.99 169.88 119.28C169.29 119.57 168.49 119.72 167.46 119.72H163.03L163.05 119.74ZM164.59 111.51H167.11C167.77 111.51 168.24 111.47 168.52 111.37C168.92 111.23 169.23 111.01 169.45 110.69C169.67 110.37 169.77 109.94 169.77 109.39C169.77 108.88 169.67 108.46 169.48 108.12C169.28 107.78 169.02 107.55 168.69 107.42C168.36 107.29 167.78 107.23 166.93 107.23H164.59V111.52V111.51ZM164.59 118.07H167.49C168.13 118.07 168.6 118.01 168.91 117.89C169.35 117.72 169.68 117.45 169.91 117.06C170.14 116.68 170.25 116.19 170.25 115.61C170.25 115.07 170.14 114.62 169.92 114.25C169.7 113.88 169.4 113.61 169.03 113.44C168.66 113.27 168.07 113.18 167.28 113.18H164.59V118.06V118.07Z" fill="#E60013"/>
<path d="M179.5 116.43L180.97 116.65C180.72 117.75 180.28 118.58 179.64 119.13C179 119.69 178.2 119.97 177.25 119.97C176.06 119.97 175.09 119.52 174.35 118.61C173.61 117.7 173.24 116.4 173.24 114.69C173.24 112.98 173.61 111.56 174.36 110.63C175.11 109.7 176.05 109.23 177.19 109.23C178.33 109.23 179.19 109.69 179.92 110.6C180.65 111.51 181.01 112.84 181.01 114.58V115.05H174.71C174.77 116.2 175.04 117.08 175.51 117.66C175.99 118.25 176.57 118.54 177.25 118.54C178.32 118.54 179.07 117.84 179.49 116.43H179.5ZM174.8 113.61H179.5C179.44 112.72 179.25 112.06 178.93 111.62C178.47 110.98 177.89 110.66 177.18 110.66C176.54 110.66 176 110.93 175.54 111.46C175.09 111.99 174.84 112.71 174.8 113.61Z" fill="#E60013"/>
<path d="M182.73 123.7L182.57 122.07C182.89 122.17 183.16 122.22 183.38 122.22C183.68 122.22 183.93 122.16 184.13 122.03C184.33 121.91 184.49 121.72 184.62 121.46C184.66 121.37 184.85 120.8 185.18 119.75L181.97 109.46H183.51L185.27 115.41C185.49 116.15 185.69 116.94 185.88 117.79C186.04 116.99 186.24 116.21 186.46 115.45L188.26 109.46H189.69L186.49 119.91C186.07 121.27 185.74 122.17 185.5 122.62C185.26 123.07 184.98 123.4 184.68 123.6C184.37 123.8 184.03 123.9 183.64 123.9C183.37 123.9 183.06 123.83 182.72 123.69L182.73 123.7Z" fill="#E60013"/>
<path d="M190.37 114.6C190.37 112.82 190.74 111.49 191.49 110.58C192.23 109.68 193.18 109.22 194.32 109.22C195.46 109.22 196.38 109.67 197.14 110.58C197.89 111.48 198.27 112.79 198.27 114.49C198.27 116.34 197.9 117.71 197.16 118.61C196.42 119.51 195.47 119.96 194.32 119.96C193.17 119.96 192.25 119.51 191.5 118.6C190.75 117.69 190.37 116.36 190.37 114.59V114.6ZM191.83 114.6C191.83 115.93 192.07 116.92 192.56 117.57C193.05 118.22 193.64 118.54 194.36 118.54C195.03 118.54 195.61 118.21 196.09 117.56C196.57 116.9 196.81 115.92 196.81 114.6C196.81 113.28 196.57 112.29 196.08 111.64C195.59 110.99 195 110.67 194.28 110.67C193.6 110.67 193.03 111 192.55 111.65C192.07 112.3 191.83 113.29 191.83 114.6Z" fill="#E60013"/>
<path d="M199.95 119.74V109.46H201.24V110.91C201.55 110.35 201.93 109.92 202.37 109.64C202.81 109.36 203.33 109.22 203.91 109.22C204.36 109.22 204.78 109.31 205.16 109.49C205.54 109.67 205.85 109.9 206.09 110.19C206.33 110.48 206.5 110.85 206.62 111.31C206.74 111.77 206.79 112.47 206.79 113.42V119.74H205.37V113.48C205.37 112.72 205.31 112.17 205.18 111.82C205.05 111.47 204.85 111.2 204.57 111.01C204.3 110.82 203.98 110.73 203.62 110.73C202.94 110.73 202.39 110.98 201.99 111.5C201.58 112.01 201.38 112.88 201.38 114.12V119.74H199.96H199.95Z" fill="#E60013"/>
<path d="M214.44 119.74V118.44C214.18 118.94 213.85 119.32 213.44 119.58C213.03 119.84 212.59 119.97 212.12 119.97C211.13 119.97 210.27 119.5 209.54 118.56C208.81 117.62 208.45 116.3 208.45 114.6C208.45 113.43 208.61 112.44 208.93 111.63C209.25 110.82 209.68 110.21 210.22 109.82C210.76 109.43 211.36 109.23 212.01 109.23C212.48 109.23 212.92 109.35 213.32 109.6C213.72 109.85 214.06 110.2 214.32 110.64V105.55H215.76V119.74H214.42H214.44ZM209.92 114.61C209.92 115.94 210.15 116.93 210.61 117.57C211.07 118.22 211.61 118.54 212.22 118.54C212.83 118.54 213.35 118.23 213.8 117.61C214.25 116.99 214.47 116.06 214.47 114.8C214.47 113.36 214.25 112.31 213.8 111.65C213.36 110.99 212.79 110.66 212.12 110.66C211.52 110.66 211 110.98 210.57 111.61C210.14 112.25 209.92 113.25 209.92 114.61Z" fill="#E60013"/>
</svg>
