<svg width="107" height="98" viewBox="0 0 107 98" fill="none" xmlns="http://www.w3.org/2000/svg">
<path d="M48.89 0C21.89 0 0 21.89 0 48.89C0 75.89 21.89 97.78 48.89 97.78C75.89 97.78 97.78 75.89 97.78 48.89C97.78 21.89 75.89 0 48.89 0ZM48.89 71.29C36.52 71.29 26.49 61.26 26.49 48.89C26.49 36.52 36.52 26.49 48.89 26.49C61.26 26.49 71.29 36.52 71.29 48.89C71.29 61.26 61.26 71.29 48.89 71.29Z" fill="black"/>
<path d="M78.73 76.69C83.4355 76.69 87.25 72.8755 87.25 68.17C87.25 63.4645 83.4355 59.65 78.73 59.65C74.0245 59.65 70.21 63.4645 70.21 68.17C70.21 72.8755 74.0245 76.69 78.73 76.69Z" fill="#E60013"/>
<path d="M65.4029 56.3569C66.3696 52.2895 63.856 48.2084 59.7885 47.2417C55.7211 46.2749 51.64 48.7885 50.6732 52.856C49.7065 56.9235 52.2201 61.0045 56.2876 61.9713C60.3551 62.9381 64.4361 60.4244 65.4029 56.3569Z" fill="#DCDDDD"/>
<path d="M99.15 89.21C103.331 89.21 106.72 85.8207 106.72 81.64C106.72 77.4592 103.331 74.0699 99.15 74.0699C94.9692 74.0699 91.58 77.4592 91.58 81.64C91.58 85.8207 94.9692 89.21 99.15 89.21Z" fill="#DCDDDD"/>
</svg>
